<svg width="232" height="56" viewBox="0 0 232 56" fill="none" xmlns="http://www.w3.org/2000/svg">
<path d="M53 5H21C17.134 5 14 8.13401 14 12V44C14 47.866 17.134 51 21 51H53C56.866 51 60 47.866 60 44V12C60 8.13401 56.866 5 53 5Z" stroke="#E11D48" stroke-width="2"/>
<path d="M34.1912 10.92H40.9112L53.4392 45H46.6232L43.4552 36.504H31.5512L28.4312 45H21.6152L34.1912 10.92ZM42.2552 31.848L37.5512 17.784L32.6552 31.848H42.2552Z" fill="black"/>
<path d="M72.6768 37.56C72.6768 35.928 73.1248 34.504 74.0208 33.288C74.9488 32.04 76.2288 31.08 77.8608 30.408C79.4928 29.736 81.3648 29.4 83.4768 29.4C84.5328 29.4 85.6048 29.48 86.6928 29.64C87.7808 29.8 88.7248 30.056 89.5248 30.408V29.064C89.5248 27.464 89.0448 26.232 88.0848 25.368C87.1568 24.504 85.7648 24.072 83.9088 24.072C82.5328 24.072 81.2208 24.312 79.9728 24.792C78.7248 25.272 77.4128 25.976 76.0368 26.904L73.9728 22.68C75.6368 21.592 77.3328 20.776 79.0608 20.232C80.8208 19.688 82.6608 19.416 84.5808 19.416C88.1648 19.416 90.9488 20.312 92.9328 22.104C94.9488 23.896 95.9568 26.456 95.9568 29.784V37.8C95.9568 38.472 96.0688 38.952 96.2928 39.24C96.5488 39.528 96.9488 39.704 97.4928 39.768V45C96.9168 45.096 96.3888 45.176 95.9088 45.24C95.4608 45.304 95.0768 45.336 94.7568 45.336C93.4768 45.336 92.5008 45.048 91.8288 44.472C91.1888 43.896 90.7888 43.192 90.6288 42.36L90.4848 41.064C89.3968 42.472 88.0368 43.56 86.4048 44.328C84.7728 45.096 83.1088 45.48 81.4128 45.48C79.7488 45.48 78.2448 45.144 76.9008 44.472C75.5888 43.768 74.5488 42.824 73.7808 41.64C73.0448 40.424 72.6768 39.064 72.6768 37.56ZM88.3248 38.856C88.6768 38.472 88.9648 38.088 89.1888 37.704C89.4128 37.32 89.5248 36.968 89.5248 36.648V34.104C88.7568 33.784 87.9248 33.544 87.0288 33.384C86.1328 33.192 85.2848 33.096 84.4848 33.096C82.8208 33.096 81.4448 33.464 80.3568 34.2C79.3008 34.904 78.7728 35.848 78.7728 37.032C78.7728 37.672 78.9488 38.28 79.3008 38.856C79.6528 39.432 80.1648 39.896 80.8368 40.248C81.5088 40.6 82.3088 40.776 83.2368 40.776C84.1968 40.776 85.1408 40.6 86.0688 40.248C86.9968 39.864 87.7488 39.4 88.3248 38.856ZM116.271 45.48C114.351 45.48 112.639 45.048 111.135 44.184C109.631 43.32 108.447 42.136 107.583 40.632V45H101.967V9.96002H108.399V24.264C109.295 22.76 110.463 21.576 111.903 20.712C113.375 19.848 115.087 19.416 117.039 19.416C118.671 19.416 120.159 19.768 121.503 20.472C122.847 21.144 123.999 22.088 124.959 23.304C125.951 24.52 126.703 25.912 127.215 27.48C127.759 29.048 128.031 30.728 128.031 32.52C128.031 34.312 127.727 35.992 127.119 37.56C126.543 39.128 125.727 40.52 124.671 41.736C123.615 42.92 122.367 43.848 120.927 44.52C119.519 45.16 117.967 45.48 116.271 45.48ZM114.495 40.008C115.519 40.008 116.447 39.816 117.279 39.432C118.143 39.016 118.879 38.472 119.487 37.8C120.127 37.128 120.607 36.344 120.927 35.448C121.279 34.52 121.455 33.56 121.455 32.568C121.455 31.192 121.167 29.928 120.591 28.776C120.047 27.592 119.279 26.648 118.287 25.944C117.327 25.24 116.191 24.888 114.879 24.888C113.951 24.888 113.055 25.112 112.191 25.56C111.359 25.976 110.607 26.552 109.935 27.288C109.295 28.024 108.783 28.856 108.399 29.784V35.784C108.591 36.424 108.895 37 109.311 37.512C109.759 38.024 110.271 38.472 110.847 38.856C111.423 39.208 112.015 39.496 112.623 39.72C113.263 39.912 113.887 40.008 114.495 40.008ZM155.765 45H149.333V30.888C149.333 28.936 148.949 27.48 148.181 26.52C147.445 25.56 146.421 25.08 145.109 25.08C144.341 25.08 143.525 25.304 142.661 25.752C141.797 26.2 141.013 26.824 140.309 27.624C139.637 28.392 139.141 29.288 138.821 30.312V45H132.389V9.96002H138.821V24.504C139.749 22.904 141.013 21.656 142.613 20.76C144.213 19.864 145.957 19.416 147.845 19.416C149.477 19.416 150.805 19.704 151.829 20.28C152.853 20.824 153.653 21.576 154.229 22.536C154.805 23.464 155.205 24.52 155.429 25.704C155.653 26.856 155.765 28.056 155.765 29.304V45ZM161.118 35.592V19.848H167.55V34.2C167.55 36.12 167.902 37.576 168.606 38.568C169.31 39.528 170.35 40.008 171.726 40.008C172.558 40.008 173.374 39.848 174.174 39.528C175.006 39.176 175.758 38.664 176.43 37.992C177.134 37.32 177.726 36.472 178.206 35.448V19.848H184.638V37.8C184.638 38.472 184.75 38.952 184.974 39.24C185.23 39.528 185.63 39.704 186.174 39.768V45C185.534 45.096 184.99 45.16 184.542 45.192C184.126 45.256 183.742 45.288 183.39 45.288C182.238 45.288 181.294 45.032 180.558 44.52C179.854 43.976 179.438 43.24 179.31 42.312L179.166 40.296C178.046 41.992 176.606 43.288 174.846 44.184C173.086 45.048 171.15 45.48 169.038 45.48C166.446 45.48 164.478 44.648 163.134 42.984C161.79 41.288 161.118 38.824 161.118 35.592ZM205.334 45.48C203.414 45.48 201.702 45.048 200.198 44.184C198.694 43.32 197.51 42.136 196.646 40.632V45H191.03V9.96002H197.462V24.264C198.358 22.76 199.526 21.576 200.966 20.712C202.438 19.848 204.15 19.416 206.102 19.416C207.734 19.416 209.222 19.768 210.566 20.472C211.91 21.144 213.062 22.088 214.022 23.304C215.014 24.52 215.766 25.912 216.278 27.48C216.822 29.048 217.094 30.728 217.094 32.52C217.094 34.312 216.79 35.992 216.182 37.56C215.606 39.128 214.79 40.52 213.734 41.736C212.678 42.92 211.43 43.848 209.99 44.52C208.582 45.16 207.03 45.48 205.334 45.48ZM203.558 40.008C204.582 40.008 205.51 39.816 206.342 39.432C207.206 39.016 207.942 38.472 208.55 37.8C209.19 37.128 209.67 36.344 209.99 35.448C210.342 34.52 210.518 33.56 210.518 32.568C210.518 31.192 210.23 29.928 209.654 28.776C209.11 27.592 208.342 26.648 207.35 25.944C206.39 25.24 205.254 24.888 203.942 24.888C203.014 24.888 202.118 25.112 201.254 25.56C200.422 25.976 199.67 26.552 198.998 27.288C198.358 28.024 197.846 28.856 197.462 29.784V35.784C197.654 36.424 197.958 37 198.374 37.512C198.822 38.024 199.334 38.472 199.91 38.856C200.486 39.208 201.078 39.496 201.686 39.72C202.326 39.912 202.95 40.008 203.558 40.008Z" fill="black"/>
</svg>
