<svg
  xmlns="http://www.w3.org/2000/svg"
  xmlns:xlink="http://www.w3.org/1999/xlink"
>
  <defs>
    <symbol id="twitter" viewBox="0 0 512 512">
      <path d="M0 0h512v512H0z" fill="#000"/><path clip-rule="evenodd" d="M192.034 98H83l129.275 170.757L91.27 412h55.908l91.521-108.34 81.267 107.343H429L295.968 235.284l.236.303L410.746 99.994h-55.908l-85.062 100.694zm-48.849 29.905h33.944l191.686 253.193h-33.944z" fill="#fff" fill-rule="evenodd"/>
    </symbol>

    <symbol id="github" viewBox="0 0 24 24">
     <g clip-path="url(#container)">
    <path
        d="M12 0C5.374 0 0 5.373 0 12C0 17.302 3.438 21.8 8.207 23.387C8.806 23.498 9 23.126 9 22.81V20.576C5.662 21.302 4.967 19.16 4.967 19.16C4.421 17.773 3.634 17.404 3.634 17.404C2.545 16.659 3.717 16.675 3.717 16.675C4.922 16.759 5.556 17.912 5.556 17.912C6.626 19.746 8.363 19.216 9.048 18.909C9.155 18.134 9.466 17.604 9.81 17.305C7.145 17 4.343 15.971 4.343 11.374C4.343 10.063 4.812 8.993 5.579 8.153C5.455 7.85 5.044 6.629 5.696 4.977C5.696 4.977 6.704 4.655 8.997 6.207C9.954 5.941 10.98 5.808 12 5.803C13.02 5.808 14.047 5.941 15.006 6.207C17.297 4.655 18.303 4.977 18.303 4.977C18.956 6.63 18.545 7.851 18.421 8.153C19.191 8.993 19.656 10.064 19.656 11.374C19.656 15.983 16.849 16.998 14.177 17.295C14.607 17.667 15 18.397 15 19.517V22.81C15 23.129 15.192 23.504 15.801 23.386C20.566 21.797 24 17.3 24 12C24 5.373 18.627 0 12 0Z"
        fill="currentColor"
    ></path>
    </g>
    <defs>
    <clipPath id="container">
        <rect width="24" height="24" fill="white"></rect>
    </clipPath>
    </defs>
    </symbol>

    <symbol id="zapier"   viewBox="0 0 250 250" fill="none" xmlns="http://www.w3.org/2000/svg">
      <path d="M128.080089,-0.000183105 C135.311053,0.0131003068 142.422517,0.624138494 149.335663,1.77979593 L149.335663,1.77979593 L149.335663,76.2997796 L202.166953,23.6044907 C208.002065,27.7488446 213.460883,32.3582023 218.507811,37.3926715 C223.557281,42.4271407 228.192318,47.8867213 232.346817,53.7047992 L232.346817,53.7047992 L179.512985,106.400063 L254.227854,106.400063 C255.387249,113.29414 256,120.36111 256,127.587243 L256,127.587243 L256,127.759881 C256,134.986013 255.387249,142.066204 254.227854,148.960282 L254.227854,148.960282 L179.500273,148.960282 L232.346817,201.642324 C228.192318,207.460402 223.557281,212.919983 218.523066,217.954452 L218.523066,217.954452 L218.507811,217.954452 C213.460883,222.988921 208.002065,227.6115 202.182208,231.742607 L202.182208,231.742607 L149.335663,179.04709 L149.335663,253.5672 C142.435229,254.723036 135.323765,255.333244 128.092802,255.348499 L128.092802,255.348499 L127.907197,255.348499 C120.673691,255.333244 113.590195,254.723036 106.677048,253.5672 L106.677048,253.5672 L106.677048,179.04709 L53.8457596,231.742607 C42.1780766,223.466917 31.977435,213.278734 23.6658953,201.642324 L23.6658953,201.642324 L76.4997269,148.960282 L1.78485803,148.960282 C0.612750404,142.052729 0,134.946095 0,127.719963 L0,127.719963 L0,127.349037 C0.0121454869,125.473817 0.134939797,123.182933 0.311311815,120.812834 L0.36577283,120.099764 C0.887996182,113.428547 1.78485803,106.400063 1.78485803,106.400063 L1.78485803,106.400063 L76.4997269,106.400063 L23.6658953,53.7047992 C27.8076812,47.8867213 32.4300059,42.4403618 37.4769335,37.4193681 L37.4769335,37.4193681 L37.5023588,37.3926715 C42.5391163,32.3582023 48.0106469,27.7488446 53.8457596,23.6044907 L53.8457596,23.6044907 L106.677048,76.2997796 L106.677048,1.77979593 C113.590195,0.624138494 120.688946,0.0131003068 127.932622,-0.000183105 L127.932622,-0.000183105 L128.080089,-0.000183105 Z M128.067377,95.7600714 L127.945335,95.7600714 C118.436262,95.7600714 109.32891,97.5001809 100.910584,100.661566 C97.7553011,109.043534 96.0085811,118.129275 95.9958684,127.613685 L95.9958684,127.733184 C96.0085811,137.217594 97.7553011,146.303589 100.923296,154.685303 C109.32891,157.846943 118.436262,159.587052 127.945335,159.587052 L128.067377,159.587052 C137.576449,159.587052 146.683802,157.846943 155.089415,154.685303 C158.257411,146.290368 160.004131,137.217594 160.004131,127.733184 L160.004131,127.613685 C160.004131,118.129275 158.257411,109.043534 155.089415,100.661566 C146.683802,97.5001809 137.576449,95.7600714 128.067377,95.7600714 Z" fill="#FF4A00" fill-rule="nonzero">
    </path>
    </symbol>

    <symbol id="protocol"  viewBox="0 0 163 82" fill="none" xmlns="http://www.w3.org/2000/svg">
      <path d="M159.708 24.8987C156.6 17.5737 151.437 11.3579 144.928 6.9581C141.688 4.7714 138.104 3.03204 134.258 1.84595C130.437 0.634085 126.354 0.00127193 122.14 0.00127193C116.737 0.00127193 111.547 1.05628 106.806 2.98081C106.409 3.13735 106.041 3.29452 105.674 3.47969C101.405 5.35013 97.5049 7.98479 94.1602 11.1209C93.0797 12.1476 92.053 13.228 91.0238 14.4399C89.2074 16.5213 87.337 18.9192 85.5181 21.3426C85.15 21.8415 84.7539 22.369 84.3861 22.871C83.3851 24.2397 73.8194 38.2565 72.1342 40.7597C71.2904 42.0228 70.2895 43.4456 69.2087 44.9998C68.972 45.3422 68.7098 45.7125 68.4474 46.0803C66.6542 48.6354 64.6524 51.3238 62.8077 53.696C61.8866 54.8796 60.963 55.9858 60.173 56.9094C59.3576 57.8562 58.6192 58.6204 58.0917 59.1219C55.8277 61.2548 53.1647 62.9941 50.2421 64.1802C47.317 65.3663 44.129 66.0249 40.7559 66.0249C38.4378 66.0249 36.1993 65.708 34.0924 65.1293C33.012 64.8388 31.957 64.4707 30.9303 64.0231C26.3972 62.1243 22.5249 58.9109 19.8107 54.8792C18.442 52.8519 17.3612 50.6392 16.6231 48.267C15.9126 45.8948 15.4911 43.3941 15.4911 40.7594C15.4911 37.2552 16.2037 33.962 17.4668 30.9309C19.3914 26.4004 22.6047 22.5542 26.6364 19.8139C28.6637 18.4426 30.8762 17.3901 33.2484 16.6517C35.618 15.9133 38.1213 15.4943 40.7559 15.4943C44.129 15.5197 47.317 16.1528 50.2421 17.3364C53.165 18.5479 55.8277 20.2615 58.0917 22.3944C58.6192 22.8962 59.3576 23.6858 60.173 24.6094C61.5958 26.269 63.2811 28.4019 64.9689 30.643C65.6275 31.5383 66.2861 32.4336 66.9447 33.3546C69.4737 29.6678 73.899 23.1867 76.2171 19.8393C75.8235 19.3118 75.4274 18.7872 75.0335 18.2597C73.9785 16.9139 72.9238 15.625 71.8717 14.4389C70.8167 13.2271 69.8157 12.1466 68.7353 11.1199C65.1 7.69272 60.8062 4.90153 56.0898 2.97954C51.348 1.05501 46.1563 0 40.7559 0C35.1446 0 29.77 1.13455 24.8713 3.21593C17.5467 6.29824 11.3538 11.4619 6.95396 17.9686C4.76727 21.2106 3.03045 24.8175 1.81859 28.6383C0.632814 32.4857 0 36.5432 0 40.7601C0 46.3714 1.132 51.746 3.18793 56.6189C6.29569 63.9696 11.4594 70.1625 17.9406 74.562C21.208 76.749 24.7921 78.4855 28.6383 79.6974C32.4587 80.8835 36.5419 81.5163 40.7562 81.5163C46.1566 81.5163 51.3486 80.4613 56.0901 78.5396C60.8065 76.6151 65.0746 73.8233 68.7101 70.4247L68.7356 70.3989C69.8164 69.398 70.8173 68.2892 71.872 67.0774C73.6884 64.996 75.5588 62.6006 77.3777 60.1769C77.7458 59.6751 78.1419 59.1734 78.5097 58.6742C79.5106 57.2772 92.6063 38.071 93.6845 36.5171C93.9238 36.1748 94.1863 35.807 94.4484 35.4367C96.2419 32.9073 98.2434 30.1934 100.088 27.8238C101.009 26.6377 101.933 25.5312 102.723 24.6101C103.538 23.6607 104.277 22.8965 104.804 22.3951C107.068 20.2622 109.731 18.5486 112.654 17.337C113.367 17.0488 114.077 16.8124 114.815 16.5728C117.133 15.8888 119.582 15.5207 122.14 15.4949C125.644 15.5203 128.963 16.205 131.965 17.4964C136.496 19.3926 140.371 22.606 143.083 26.6377C144.454 28.6675 145.534 30.8803 146.27 33.2496C147.009 35.6218 147.405 38.1251 147.405 40.7597C147.405 44.2639 146.692 47.5829 145.429 50.5854C143.504 55.1159 140.291 58.9908 136.259 61.7024C134.232 63.0737 132.02 64.1545 129.647 64.8646C127.304 65.603 124.775 66.0252 122.14 66.0252C118.767 66.0252 115.579 65.3666 112.654 64.1806C109.731 62.9945 107.068 61.2551 104.804 59.1222C104.276 58.6204 103.538 57.8308 102.722 56.9097C101.3 55.276 99.6121 53.1147 97.9265 50.8765C97.2425 49.9809 96.5836 49.0573 95.925 48.1362C95.7141 48.4525 95.5031 48.7693 95.2664 49.1114C90.9185 55.4869 88.1782 59.5183 86.6781 61.7028C87.0716 62.2303 87.4681 62.732 87.8616 63.2595C88.9166 64.6024 89.9713 65.8941 91.0235 67.0774C92.0524 68.2889 93.0794 69.398 94.1599 70.3989C97.7951 73.8233 102.089 76.6151 106.805 78.5396C111.547 80.4613 116.737 81.5163 122.14 81.5163C127.751 81.5163 133.126 80.3843 137.998 78.3287C145.349 75.2206 151.539 70.0569 155.941 63.5477C158.126 60.3086 159.893 56.7245 161.077 52.878C162.263 49.0573 162.896 44.9744 162.896 40.7601C162.896 35.1487 161.764 29.7741 159.708 24.8987Z" fill="black"/>
    </symbol>
     
    <symbol id="nwc"  viewBox="0 0 381 381" fill="none" xmlns="http://www.w3.org/2000/svg">
      <path d="M0 0 C4.44211098 3.88605364 8.73523338 7.92116326 13 12 C13.67804688 12.63679688 14.35609375 13.27359375 15.0546875 13.9296875 C47.76182634 45.4310332 67.21696298 93.71837014 68.203125 138.765625 C68.77712821 193.25596749 50.99383806 241.8827517 13.03320312 281.30102539 C-18.42906771 313.35766265 -64.32586576 336.53018637 -109.85879517 337.18980408 C-110.53832245 337.19419998 -111.21784973 337.19859589 -111.91796875 337.203125 C-112.64905853 337.21013931 -113.38014832 337.21715363 -114.13339233 337.22438049 C-116.48482488 337.24180393 -118.83600523 337.2482345 -121.1875 337.25 C-122.39477249 337.25101212 -122.39477249 337.25101212 -123.62643433 337.25204468 C-136.29304495 337.2351859 -148.58122497 336.70547171 -161 334 C-161.79035645 333.82839355 -162.58071289 333.65678711 -163.39501953 333.47998047 C-208.97020071 323.19592567 -251.03949626 296.50122812 -278 258 C-278.43376953 257.38882324 -278.86753906 256.77764648 -279.31445312 256.14794922 C-295.49821792 233.10063813 -306.05671765 206.68109219 -311 179 C-311.22558594 177.74316406 -311.45117188 176.48632812 -311.68359375 175.19140625 C-318.88711871 125.85968017 -306.66790471 74.24140923 -277.1015625 34.06640625 C-257.58556402 8.18170732 -233.34050403 -12.44190784 -203.85400391 -26.13867188 C-202.13854509 -26.9356351 -200.43395928 -27.75589062 -198.73046875 -28.578125 C-134.33480329 -58.16742715 -53.72031403 -45.50599857 0 0 Z " fill="#568B9A" transform="translate(313,44)"/>
      <path d="M0 0 C0.65597168 0.20963379 1.31194336 0.41926758 1.98779297 0.63525391 C26.73753169 8.70298555 48.48980594 22.89662339 67 41 C67.7734375 41.7115625 68.546875 42.423125 69.34375 43.15625 C97.99907123 70.15039319 115.42950561 111.82373804 117.12573242 150.89624023 C117.50724174 165.83046467 117.0067925 180.34497574 114 195 C113.81195801 195.93344238 113.62391602 196.86688477 113.43017578 197.82861328 C109.60117464 215.88309997 109.60117464 215.88309997 103.625 220.3125 C101.78207428 221.27258705 99.90174679 222.16244312 98 223 C96.78177622 223.64223784 95.5685117 224.29393833 94.359375 224.953125 C85.25123254 229.83447224 75.7994442 233.73104533 66 237 C65.05600342 237.31807617 64.11200684 237.63615234 63.1394043 237.96386719 C20.05118477 251.90716903 -31.00936865 249.96832812 -71.578125 229.42578125 C-92.86009916 218.09842747 -109.81929564 200.7038611 -117 177.375 C-119.5703191 165.20771024 -119.95923945 149.54363507 -115 138 C-114.62875 137.10837158 -114.62875 137.10837158 -114.25 136.19873047 C-106.72534498 118.50621117 -94.51406529 105.82722485 -76.75 98.0625 C-62.059642 92.13965335 -44.08500458 91.25438369 -29.36743164 97.37084961 C-12.48040573 105.02233571 -1.09596929 116.85959225 7.5625 133 C7.89685059 133.62245605 8.23120117 134.24491211 8.57568359 134.88623047 C10.29720684 138.22694549 11.48445399 141.2711193 12 145 C12.66 145 13.32 145 14 145 C11.67817075 133.19964426 8.77827684 122.05422254 4 111 C3.71672852 110.34290039 3.43345703 109.68580078 3.14160156 109.00878906 C-1.77808563 97.87018236 -8.33568762 88.42220648 -16 79 C-17.12728516 77.59427734 -17.12728516 77.59427734 -18.27734375 76.16015625 C-35.03163999 56.41067856 -59.30637144 44.3339871 -84 38 C-85.74796875 37.51853516 -85.74796875 37.51853516 -87.53125 37.02734375 C-119.14582317 29.37291444 -149.87665606 37.77474798 -178 52 C-178 48.32519895 -177.34830924 47.95471703 -174.84375 45.41015625 C-174.15958008 44.7143042 -173.47541016 44.01845215 -172.77050781 43.30151367 C-171.64660645 42.1932019 -171.64660645 42.1932019 -170.5 41.0625 C-169.7275293 40.29977783 -168.95505859 39.53705566 -168.15917969 38.7512207 C-145.86091693 17.1239073 -118.26955575 2.67516404 -88 -4 C-86.68432685 -4.34156581 -85.36923662 -4.6853835 -84.0546875 -5.03125 C-56.82311631 -11.87193611 -26.38984022 -8.6146858 0 0 Z " fill="#FEF8E9" transform="translate(242,30)"/>
      <path d="M0 0 C11.44865114 7.49636152 19.47640364 18.1444647 23.38891602 31.31542969 C26.2190348 45.07616863 24.17024071 59.45304799 16.98046875 71.42578125 C8.34263694 84.01623038 -3.13527716 91.64285975 -18.125 94.90234375 C-32.49411208 97.12002559 -45.39764422 93.85818504 -57.1875 85.375 C-67.42210932 77.70325825 -74.90222974 67.1052996 -77.1875 54.375 C-78.33709626 42.43092945 -78.52206028 30.93260046 -72.1875 20.375 C-71.51847656 19.18777344 -71.51847656 19.18777344 -70.8359375 17.9765625 C-63.73734996 6.35708681 -53.68010822 -1.29367388 -40.859375 -5.79296875 C-26.90578549 -8.95479276 -12.50390946 -6.81327574 0 0 Z " fill="#F5BA47" transform="translate(217.1875,146.625)"/>
    </symbol>
       
    <symbol
      id="react"
      width="15"
      height="16"
      viewBox="0 0 14 14"
      fill="none"
      xmlns="http://www.w3.org/2000/svg"
    >
      <path
        d="M12.3029 5.50126C12.3029 4.68299 11.2822 3.90753 9.71741 3.42664C10.0785 1.82536 9.91803 0.551385 9.21085 0.143511C9.04785 0.047837 8.85726 0.0025177 8.64912 0.0025177V0.563973C8.76447 0.563973 8.85726 0.586633 8.935 0.629435C9.27605 0.825818 9.42401 1.57359 9.30865 2.53536C9.28107 2.77203 9.23593 3.02129 9.18076 3.27558C8.68924 3.15473 8.15259 3.06157 7.58836 3.00114C7.24981 2.53536 6.89873 2.11238 6.54515 1.74227C7.36266 0.9794 8.13002 0.561456 8.65163 0.561456V0C7.96201 0 7.05923 0.493477 6.14642 1.34951C5.23361 0.498512 4.33083 0.010071 3.64121 0.010071V0.571527C4.16031 0.571527 4.93017 0.986953 5.74769 1.74479C5.39661 2.1149 5.04553 2.53536 4.712 3.00114C4.14526 3.06157 3.60861 3.15473 3.11709 3.2781C3.05942 3.02632 3.01679 2.7821 2.98669 2.54795C2.86883 1.58618 3.01428 0.838407 3.35282 0.639506C3.42805 0.594186 3.52585 0.574044 3.64121 0.574044V0.0125887C3.43056 0.0125887 3.23997 0.0579079 3.07446 0.153582C2.36979 0.561456 2.21181 1.83291 2.57543 3.42916C1.01563 3.91257 0 4.68551 0 5.50126C0 6.31952 1.02064 7.09499 2.58546 7.57587C2.22435 9.17716 2.38484 10.4511 3.09202 10.859C3.25502 10.9547 3.44561 11 3.65625 11C4.34588 11 5.24865 10.5065 6.16146 9.65049C7.07427 10.5015 7.97705 10.9899 8.66667 10.9899C8.87732 10.9899 9.06791 10.9446 9.23342 10.8489C9.93809 10.4411 10.0961 9.1696 9.73245 7.57336C11.2872 7.09247 12.3029 6.31701 12.3029 5.50126ZM9.03782 3.82193C8.94503 4.14672 8.82968 4.48157 8.69927 4.81643C8.59646 4.61501 8.48863 4.4136 8.37076 4.21218C8.25541 4.01076 8.13253 3.81437 8.00965 3.62303C8.36575 3.6759 8.70931 3.74136 9.03782 3.82193ZM7.88928 6.50332C7.69368 6.84321 7.49306 7.16548 7.28492 7.46509C6.91127 7.49782 6.53261 7.51545 6.15143 7.51545C5.77277 7.51545 5.3941 7.49783 5.02296 7.46761C4.81482 7.168 4.61169 6.84825 4.41609 6.51087C4.22551 6.18105 4.05247 5.84619 3.89449 5.50881C4.04997 5.17143 4.22551 4.83406 4.41358 4.50423C4.60919 4.16434 4.8098 3.84207 5.01794 3.54246C5.39159 3.50973 5.77026 3.4921 6.15143 3.4921C6.5301 3.4921 6.90876 3.50973 7.27991 3.53994C7.48805 3.83955 7.69117 4.1593 7.88677 4.49668C8.07736 4.8265 8.25039 5.16136 8.40838 5.49874C8.25039 5.83612 8.07736 6.17349 7.88928 6.50332ZM8.69927 6.17601C8.83469 6.51339 8.95005 6.85077 9.04534 7.17807C8.71683 7.25864 8.37076 7.32662 8.01216 7.37949C8.13504 7.18563 8.25792 6.98672 8.37327 6.78279C8.48863 6.58137 8.59646 6.37743 8.69927 6.17601ZM6.15645 8.86244C5.92323 8.62074 5.69001 8.35134 5.4593 8.05676C5.685 8.06683 5.91571 8.07439 6.14893 8.07439C6.38465 8.07439 6.61787 8.06935 6.84607 8.05676C6.62038 8.35134 6.38716 8.62074 6.15645 8.86244ZM4.29071 7.37949C3.93461 7.32662 3.59105 7.26116 3.26254 7.18059C3.35533 6.8558 3.47068 6.52094 3.60108 6.18608C3.7039 6.3875 3.81173 6.58892 3.92959 6.79034C4.04746 6.99176 4.16783 7.18814 4.29071 7.37949ZM6.14391 2.14008C6.37713 2.38178 6.61035 2.65118 6.84106 2.94575C6.61536 2.93568 6.38465 2.92813 6.15143 2.92813C5.91571 2.92813 5.68249 2.93317 5.45429 2.94575C5.67998 2.65118 5.9132 2.38178 6.14391 2.14008ZM4.2882 3.62303C4.16532 3.81689 4.04244 4.01579 3.92709 4.21973C3.81173 4.42115 3.7039 4.62257 3.60108 4.82399C3.46567 4.48661 3.35031 4.14923 3.25502 3.82193C3.58353 3.74388 3.9296 3.6759 4.2882 3.62303ZM2.01871 6.77523C1.13098 6.39506 0.556713 5.89654 0.556713 5.50126C0.556713 5.10597 1.13098 4.60494 2.01871 4.22728C2.23438 4.13413 2.4701 4.05104 2.71335 3.97299C2.85629 4.46647 3.04437 4.98009 3.27759 5.50629C3.04688 6.02998 2.86131 6.54108 2.72088 7.03204C2.47261 6.95399 2.23689 6.86839 2.01871 6.77523ZM3.36787 10.3731C3.02682 10.1767 2.87886 9.42893 2.99422 8.46715C3.0218 8.23049 3.06694 7.98123 3.12211 7.72694C3.61362 7.84779 4.15027 7.94095 4.71451 8.00137C5.05305 8.46715 5.40413 8.89013 5.75772 9.26024C4.94021 10.0231 4.17284 10.4411 3.65124 10.4411C3.53839 10.4385 3.4431 10.4159 3.36787 10.3731ZM9.31617 8.45457C9.43404 9.41634 9.28859 10.1641 8.95005 10.363C8.87481 10.4083 8.77701 10.4285 8.66166 10.4285C8.14256 10.4285 7.37269 10.013 6.55518 9.25521C6.90626 8.8851 7.25734 8.46464 7.59086 7.99886C8.15761 7.93843 8.69426 7.84527 9.18577 7.7219C9.24345 7.9762 9.28859 8.22042 9.31617 8.45457ZM10.2816 6.77523C10.066 6.86839 9.83026 6.95148 9.58701 7.02953C9.44407 6.53605 9.25599 6.02243 9.02277 5.49622C9.25348 4.97253 9.43905 4.46143 9.57948 3.97047C9.82775 4.04852 10.0635 4.13413 10.2842 4.22728C11.1719 4.60746 11.7462 5.10597 11.7462 5.50126C11.7436 5.89654 11.1694 6.39757 10.2816 6.77523Z"
        fill="#61DAFB"
      />
      <path
        d="M6.13697 6.65389C6.77191 6.65389 7.28663 6.13725 7.28663 5.49994C7.28663 4.86263 6.77191 4.34599 6.13697 4.34599C5.50203 4.34599 4.9873 4.86263 4.9873 5.49994C4.9873 6.13725 5.50203 6.65389 6.13697 6.65389Z"
        fill="#61DAFB"
      />
    </symbol>

    <symbol
      id="vercel"
      width="13"
      height="11"
      viewBox="0 0 13 11"
      fill="none"
      xmlns="http://www.w3.org/2000/svg"
    >
      <path
        fillRule="evenodd"
        clipRule="evenodd"
        d="M6.5 0L13 11H0L6.5 0Z"
        fill="currentColor"
      />
    </symbol>

    <symbol
      id="youtube"
      width="15"
      height="11"
      viewBox="0 0 15 11"
      fill="none"
      xmlns="http://www.w3.org/2000/svg"
    >
      <path
        d="M4.23047 7.01409V7.01437C4.23422 7.15313 4.23547 7.29269 4.25879 7.43058C4.28362 7.57647 4.3191 7.71873 4.38678 7.85115C4.47829 8.03036 4.60358 8.18176 4.76263 8.30534C4.87653 8.3941 5.00097 8.46458 5.13871 8.50903C5.33954 8.57377 5.54674 8.59857 5.75698 8.59979C5.88814 8.60062 6.01923 8.60389 6.15045 8.60334C7.10333 8.59934 8.05624 8.61022 9.00917 8.59747C9.13561 8.59577 9.25999 8.58034 9.3841 8.55766C9.62196 8.51416 9.83217 8.41265 10.012 8.25241C10.2216 8.06562 10.3631 7.83697 10.4269 7.56105C10.4687 7.38068 10.4791 7.19771 10.4809 7.01407V6.97744C10.4809 6.96324 10.4755 3.85737 10.475 3.81632C10.4736 3.70356 10.4653 3.59162 10.4441 3.48066C10.4184 3.34545 10.382 3.21369 10.3173 3.09137C10.2488 2.96211 10.1631 2.84593 10.057 2.74437C9.89467 2.58878 9.70728 2.47877 9.48904 2.42056C9.29202 2.36806 9.09102 2.35635 8.88851 2.35655C8.88786 2.35564 8.88747 2.35457 8.88739 2.35345H5.82286C5.82286 2.3545 5.82286 2.35553 5.82269 2.35655C5.70776 2.35866 5.59268 2.35778 5.47836 2.37196C5.35313 2.38751 5.22907 2.41094 5.11054 2.45469C4.92382 2.5237 4.76158 2.63118 4.62301 2.77472C4.466 2.93723 4.35528 3.1253 4.29663 3.34425C4.24421 3.53959 4.2328 3.73881 4.23252 3.93945"
        fill="white"
      />
      <path
        d="M7.75735 9.75221L5.18249 9.7052C4.34881 9.68881 3.51306 9.72152 2.69572 9.55178C1.45237 9.29819 1.36428 8.05475 1.27211 7.01174C1.14511 5.5454 1.19428 4.05245 1.43394 2.59835C1.56925 1.78245 2.10171 1.29559 2.92514 1.24262C5.70483 1.05035 8.50301 1.07313 11.2765 1.16283C11.5695 1.17106 11.8644 1.216 12.1532 1.26716C13.579 1.51668 13.6137 2.92577 13.7062 4.11196C13.7983 5.31039 13.7594 6.51497 13.5833 7.70524C13.4419 8.69075 13.1715 9.5172 12.0303 9.59698C10.6005 9.7013 9.20347 9.78529 7.76961 9.75855C7.76967 9.75221 7.76144 9.75221 7.75735 9.75221ZM6.24358 7.25718C7.32108 6.63951 8.37802 6.03213 9.44936 5.4186C8.36985 4.80093 7.31492 4.19356 6.24358 3.58003V7.25718Z"
        fill="#FF0000"
      />
    </symbol>

    <symbol id="bun" xmlns="http://www.w3.org/2000/svg" viewBox="0 0 80 70">
      <path d="M71.09 20.74c-.16-.17-.33-.34-.5-.5s-.33-.34-.5-.5-.33-.34-.5-.5-.33-.34-.5-.5-.33-.34-.5-.5-.33-.34-.5-.5-.33-.34-.5-.5A26.46 26.46 0 0 1 75.5 35.7c0 16.57-16.82 30.05-37.5 30.05-11.58 0-21.94-4.23-28.83-10.86l.5.5.5.5.5.5.5.5.5.5.5.5.5.5C19.55 65.3 30.14 69.75 42 69.75c20.68 0 37.5-13.48 37.5-30 0-7.06-3.04-13.75-8.41-19.01Z" />
      <path
        d="M73 35.7c0 15.21-15.67 27.54-35 27.54S3 50.91 3 35.7C3 26.27 9 17.94 18.22 13S33.18 3 38 3s8.94 4.13 19.78 10C67 17.94 73 26.27 73 35.7Z"
        style="fill:#fbf0df"
      />
      <path
        d="M73 35.7a21.67 21.67 0 0 0-.8-5.78c-2.73 33.3-43.35 34.9-59.32 24.94A40 40 0 0 0 38 63.24c19.3 0 35-12.35 35-27.54Z"
        data-name="Bottom Shadow"
        style="fill:#f6dece"
      />
      <path
        d="M24.53 11.17C29 8.49 34.94 3.46 40.78 3.45A9.29 9.29 0 0 0 38 3c-2.42 0-5 1.25-8.25 3.13-1.13.66-2.3 1.39-3.54 2.15-2.33 1.44-5 3.07-8 4.7C8.69 18.13 3 26.62 3 35.7v1.19c6.06-21.41 17.07-23.04 21.53-25.72Z"
        data-name="Light Shine"
        style="fill:#fffefc"
      />
      <path
        d="M35.12 5.53A16.41 16.41 0 0 1 29.49 18c-.28.25-.06.73.3.59 3.37-1.31 7.92-5.23 6-13.14-.08-.45-.67-.33-.67.08Zm2.27 0A16.24 16.24 0 0 1 39 19c-.12.35.31.65.55.36 2.19-2.8 4.1-8.36-1.62-14.36-.29-.26-.74.14-.54.49Zm2.76-.17A16.42 16.42 0 0 1 47 17.12a.33.33 0 0 0 .65.11c.92-3.49.4-9.44-7.17-12.53-.4-.16-.66.38-.33.62Zm-18.46 10.4a16.94 16.94 0 0 0 10.47-9c.18-.36.75-.22.66.18-1.73 8-7.52 9.67-11.12 9.45-.38.01-.37-.52-.01-.63Z"
        style="fill:#ccbea7;fill-rule:evenodd"
      />
      <path d="M38 65.75C17.32 65.75.5 52.27.5 35.7c0-10 6.18-19.33 16.53-24.92 3-1.6 5.57-3.21 7.86-4.62 1.26-.78 2.45-1.51 3.6-2.19C32 1.89 35 .5 38 .5s5.62 1.2 8.9 3.14c1 .57 2 1.19 3.07 1.87 2.49 1.54 5.3 3.28 9 5.27C69.32 16.37 75.5 25.69 75.5 35.7c0 16.57-16.82 30.05-37.5 30.05ZM38 3c-2.42 0-5 1.25-8.25 3.13-1.13.66-2.3 1.39-3.54 2.15-2.33 1.44-5 3.07-8 4.7C8.69 18.13 3 26.62 3 35.7c0 15.19 15.7 27.55 35 27.55S73 50.89 73 35.7c0-9.08-5.69-17.57-15.22-22.7-3.78-2-6.73-3.88-9.12-5.36-1.09-.67-2.09-1.29-3-1.84C42.63 4 40.42 3 38 3Z" />
      <path
        d="M45.05 43a8.93 8.93 0 0 1-2.92 4.71 6.81 6.81 0 0 1-4 1.88A6.84 6.84 0 0 1 34 47.71 8.93 8.93 0 0 1 31.12 43a.72.72 0 0 1 .8-.81h12.34a.72.72 0 0 1 .79.81Z"
        data-name="Background"
        style="fill:#b71422"
      />
      <path
        d="M34 47.79a6.91 6.91 0 0 0 4.12 1.9 6.91 6.91 0 0 0 4.11-1.9 10.63 10.63 0 0 0 1-1.07 6.83 6.83 0 0 0-4.9-2.31 6.15 6.15 0 0 0-5 2.78c.23.21.43.41.67.6Z"
        data-name="Background"
        style="fill:#ff6164"
      />
      <path
        d="M34.16 47a5.36 5.36 0 0 1 4.19-2.08 6 6 0 0 1 4 1.69c.23-.25.45-.51.66-.77a7 7 0 0 0-4.71-1.93 6.36 6.36 0 0 0-4.89 2.36 9.53 9.53 0 0 0 .75.73Z"
        data-name="Outline"
      />
      <path
        d="M38.09 50.19a7.42 7.42 0 0 1-4.45-2 9.52 9.52 0 0 1-3.11-5.05 1.2 1.2 0 0 1 .26-1 1.41 1.41 0 0 1 1.13-.51h12.34a1.44 1.44 0 0 1 1.13.51 1.19 1.19 0 0 1 .25 1 9.52 9.52 0 0 1-3.11 5.05 7.42 7.42 0 0 1-4.44 2Zm-6.17-7.4c-.16 0-.2.07-.21.09a8.29 8.29 0 0 0 2.73 4.37A6.23 6.23 0 0 0 38.09 49a6.28 6.28 0 0 0 3.65-1.73 8.3 8.3 0 0 0 2.72-4.37.21.21 0 0 0-.2-.09Z"
        data-name="Outline"
      />
      <ellipse
        cx="53.22"
        cy="40.18"
        data-name="Right Blush"
        rx="5.85"
        ry="3.44"
        style="fill:#febbd0"
      />
      <ellipse
        cx="22.95"
        cy="40.18"
        data-name="Left Bluch"
        rx="5.85"
        ry="3.44"
        style="fill:#febbd0"
      />
      <path
        d="M25.7 38.8a5.51 5.51 0 1 0-5.5-5.51 5.51 5.51 0 0 0 5.5 5.51Zm24.77 0A5.51 5.51 0 1 0 45 33.29a5.5 5.5 0 0 0 5.47 5.51Z"
        style="fill-rule:evenodd"
      />
      <path
        d="M24 33.64a2.07 2.07 0 1 0-2.06-2.07A2.07 2.07 0 0 0 24 33.64Zm24.77 0a2.07 2.07 0 1 0-2.06-2.07 2.07 2.07 0 0 0 2.04 2.07Z"
        style="fill:#fff;fill-rule:evenodd"
      />
    </symbol>
  </defs>
</svg>