<svg
  xmlns="http://www.w3.org/2000/svg"
  xmlns:xlink="http://www.w3.org/1999/xlink"
>
  <defs>
    <symbol id="twitter" viewBox="0 0 512 512">
      <path d="M0 0h512v512H0z" fill="#000"/><path clip-rule="evenodd" d="M192.034 98H83l129.275 170.757L91.27 412h55.908l91.521-108.34 81.267 107.343H429L295.968 235.284l.236.303L410.746 99.994h-55.908l-85.062 100.694zm-48.849 29.905h33.944l191.686 253.193h-33.944z" fill="#fff" fill-rule="evenodd"/>
    </symbol>

    <symbol id="github" viewBox="0 0 24 24">
      <g clip-path="url(#container)">
        <path
            d="M12 0C5.374 0 0 5.373 0 12C0 17.302 3.438 21.8 8.207 23.387C8.806 23.498 9 23.126 9 22.81V20.576C5.662 21.302 4.967 19.16 4.967 19.16C4.421 17.773 3.634 17.404 3.634 17.404C2.545 16.659 3.717 16.675 3.717 16.675C4.922 16.759 5.556 17.912 5.556 17.912C6.626 19.746 8.363 19.216 9.048 18.909C9.155 18.134 9.466 17.604 9.81 17.305C7.145 17 4.343 15.971 4.343 11.374C4.343 10.063 4.812 8.993 5.579 8.153C5.455 7.85 5.044 6.629 5.696 4.977C5.696 4.977 6.704 4.655 8.997 6.207C9.954 5.941 10.98 5.808 12 5.803C13.02 5.808 14.047 5.941 15.006 6.207C17.297 4.655 18.303 4.977 18.303 4.977C18.956 6.63 18.545 7.851 18.421 8.153C19.191 8.993 19.656 10.064 19.656 11.374C19.656 15.983 16.849 16.998 14.177 17.295C14.607 17.667 15 18.397 15 19.517V22.81C15 23.129 15.192 23.504 15.801 23.386C20.566 21.797 24 17.3 24 12C24 5.373 18.627 0 12 0Z"
            fill="currentColor"
        ></path>
      </g>
      <defs>
      <clipPath id="container">
        <rect width="24" height="24" fill="white"></rect>
      </clipPath>
      </defs>
    </symbol>

    <symbol id="python" viewBox="0 0 476 139">
      <path d="M179.613 58.9294C179.613 44.3673 175.461 36.8912 167.157 36.4819C163.852 36.3259 160.626 36.8523 157.488 38.0706C154.983 38.9674 153.296 39.8544 152.409 40.7511V75.5092C157.721 78.8427 162.439 80.3925 166.552 80.1488C175.257 79.5737 179.613 72.5071 179.613 58.9294ZM189.858 59.5337C189.858 66.9318 188.123 73.0724 184.633 77.9557C180.744 83.4823 175.354 86.3285 168.463 86.4844C163.268 86.6501 157.916 85.0224 152.409 81.6109V113.201L143.5 110.024V39.9031C144.963 38.1096 146.844 36.5696 149.125 35.2635C154.427 32.1736 160.87 30.5849 168.453 30.5069L168.58 30.6336C175.51 30.5459 180.851 33.392 184.604 39.1623C188.103 44.455 189.858 51.239 189.858 59.5337Z" fill="#646464"/>
      <path d="M244.305 80.2658C244.305 90.1883 243.311 97.06 241.322 100.881C239.324 104.702 235.523 107.753 229.909 110.024C225.357 111.817 220.434 112.792 215.151 112.958L213.68 107.343C219.05 106.612 222.832 105.881 225.025 105.15C229.343 103.688 232.306 101.446 233.934 98.4441C235.24 95.9976 235.884 91.3287 235.884 84.418V82.0983C229.792 84.8664 223.407 86.2408 216.73 86.2408C212.344 86.2408 208.475 84.8664 205.141 82.0983C201.398 79.0864 199.527 75.2655 199.527 70.6357V33.5577L208.436 30.5069V67.8285C208.436 71.8151 209.722 74.8854 212.296 77.0395C214.869 79.1936 218.202 80.2268 222.286 80.1488C226.37 80.0611 230.747 78.4821 235.396 75.3923V31.852H244.305V80.2658Z" fill="#646464"/>
      <path d="M279.082 85.9971C278.02 86.0848 277.045 86.1238 276.148 86.1238C271.109 86.1238 267.181 84.9249 264.374 82.5173C261.577 80.1098 260.173 76.7861 260.173 72.5461V37.4565H254.071V31.852H260.173V16.9682L269.072 13.8004V31.852H279.082V37.4565H269.072V72.3024C269.072 75.6456 269.969 78.0142 271.762 79.3983C273.302 80.5387 275.749 81.1917 279.082 81.3574V85.9971Z" fill="#646464"/>
      <path d="M333.023 85.266H324.114V50.8783C324.114 47.3791 323.295 44.3672 321.668 41.8525C319.786 39.0063 317.174 37.5833 313.821 37.5833C309.737 37.5833 304.63 39.7374 298.499 44.0456V85.266H289.59V3.06882L298.499 0.261658V37.7002C304.191 33.5577 310.41 31.4816 317.164 31.4816C321.882 31.4816 325.703 33.0704 328.627 36.2382C331.561 39.406 333.023 43.3535 333.023 48.0711V85.266Z" fill="#646464"/>
      <path d="M380.374 57.5258C380.374 51.931 379.312 47.3109 377.197 43.6557C374.682 39.2013 370.773 36.8523 365.49 36.6086C355.724 37.1739 350.85 44.1723 350.85 57.5843C350.85 63.7347 351.864 68.8714 353.911 72.9945C356.523 78.2481 360.441 80.8409 365.666 80.7532C375.471 80.6752 380.374 72.936 380.374 57.5258ZM390.131 57.5843C390.131 65.5477 388.094 72.1757 384.029 77.4684C379.556 83.3946 373.376 86.3675 365.49 86.3675C357.673 86.3675 351.581 83.3946 347.185 77.4684C343.199 72.1757 341.21 65.5477 341.21 57.5843C341.21 50.0985 343.365 43.8019 347.673 38.675C352.225 33.2361 358.209 30.5069 365.607 30.5069C373.005 30.5069 379.029 33.2361 383.669 38.675C387.977 43.8019 390.131 50.0985 390.131 57.5843Z" fill="#646464"/>
      <path d="M441.206 85.2661H432.297V48.9289C432.297 44.9423 431.098 41.833 428.7 39.5912C426.302 37.3591 423.105 36.2772 419.119 36.3649C414.889 36.4429 410.863 37.827 407.042 40.5074V85.2661H398.133V39.406C403.26 35.6729 407.978 33.2361 412.286 32.0957C416.351 31.0332 419.938 30.5069 423.027 30.5069C425.142 30.5069 427.131 30.7116 429.002 31.121C432.502 31.93 435.348 33.431 437.541 35.6339C439.987 38.0706 441.206 40.9948 441.206 44.416V85.2661Z" fill="#646464"/>
      <path d="M55.5101 3.39801C50.9264 3.41931 46.5492 3.81023 42.6976 4.49176C31.3514 6.49627 29.2913 10.6919 29.2913 18.4293V28.648H56.1038V32.0543H29.2913H19.2288C11.4364 32.0543 4.61308 36.738 2.47884 45.648C0.0170239 55.861 -0.0921713 62.234 2.47884 72.898C4.38477 80.8359 8.93639 86.4918 16.7288 86.4918H25.9476V74.2418C25.9476 65.3919 33.6047 57.5855 42.6976 57.5855H69.4788C76.9338 57.5855 82.8851 51.4474 82.8851 43.9605V18.4293C82.8851 11.1629 76.7551 5.70449 69.4788 4.49176C64.8729 3.72504 60.0937 3.37672 55.5101 3.39801ZM41.0101 11.6168C43.7796 11.6168 46.0413 13.9154 46.0413 16.7418C46.0413 19.5581 43.7796 21.8355 41.0101 21.8355C38.2306 21.8355 35.9788 19.5581 35.9788 16.7418C35.9788 13.9154 38.2306 11.6168 41.0101 11.6168Z" fill="url(#paint0_linear_25_40)"/>
      <path d="M86.229 32.0543V43.9605C86.229 53.1913 78.4031 60.9605 69.479 60.9605H42.6978C35.3619 60.9605 29.2915 67.239 29.2915 74.5855V100.117C29.2915 107.383 35.6101 111.657 42.6978 113.742C51.1851 116.237 59.324 116.688 69.479 113.742C76.2292 111.787 82.8853 107.854 82.8853 100.117V89.898H56.104V86.4918H82.8853H96.2915C104.084 86.4918 106.988 81.0564 109.698 72.898C112.497 64.4991 112.378 56.4222 109.698 45.648C107.772 37.8906 104.094 32.0543 96.2915 32.0543H86.229ZM71.1665 96.7105C73.946 96.7105 76.1978 98.9879 76.1978 101.804C76.1978 104.631 73.946 106.929 71.1665 106.929C68.397 106.929 66.1353 104.631 66.1353 101.804C66.1353 98.9879 68.397 96.7105 71.1665 96.7105Z" fill="url(#paint1_linear_25_40)"/>
      <path d="M458.554 23.9094H460.116V14.1132H463.816V12.9455H454.854V14.1132H458.554V23.9094ZM465.201 23.9094H466.536V14.9624L469.432 23.9083H470.918L473.936 14.9927V23.9094H475.392V12.9455H473.466L470.167 22.3384L467.354 12.9455H465.201V23.9094Z" fill="#646464"/>
      <path opacity="0.44382" d="M92.339 131.098C92.339 132.013 91.4096 132.919 89.6039 133.764C87.7982 134.609 85.1516 135.378 81.8151 136.025C78.4786 136.671 74.5176 137.185 70.1582 137.535C65.7989 137.885 61.1266 138.065 56.408 138.065C51.6895 138.065 47.0172 137.885 42.6578 137.535C38.2985 137.185 34.3375 136.671 31.001 136.025C27.6645 135.378 25.0178 134.609 23.2121 133.764C21.4064 132.919 20.4771 132.013 20.4771 131.098C20.4771 130.183 21.4064 129.277 23.2121 128.432C25.0178 127.586 27.6645 126.818 31.001 126.171C34.3375 125.524 38.2985 125.011 42.6578 124.661C47.0172 124.311 51.6895 124.131 56.408 124.131C61.1266 124.131 65.7989 124.311 70.1582 124.661C74.5176 125.011 78.4786 125.524 81.8151 126.171C85.1516 126.818 87.7982 127.586 89.6039 128.432C91.4096 129.277 92.339 130.183 92.339 131.098Z" fill="url(#paint2_radial_25_40)"/>
      <defs>
      <linearGradient id="paint0_linear_25_40" x1="0.591309" y1="3.39709" x2="62.418" y2="56.082" gradientUnits="userSpaceOnUse">
        <stop stop-color="#5A9FD4"/>
        <stop offset="1" stop-color="#306998"/>
      </linearGradient>
      <linearGradient id="paint1_linear_25_40" x1="70.5222" y1="100.945" x2="48.3411" y2="69.8628" gradientUnits="userSpaceOnUse">
        <stop stop-color="#FFD43B"/>
        <stop offset="1" stop-color="#FFE873"/>
      </linearGradient>
      <radialGradient id="paint2_radial_25_40" cx="0" cy="0" r="1" gradientUnits="userSpaceOnUse" gradientTransform="translate(56.408 131.098) rotate(-90) scale(6.96732 30.6243)">
        <stop stop-color="#B8B8B8" stop-opacity="0.498039"/>
        <stop offset="1" stop-color="#7F7F7F" stop-opacity="0"/>
      </radialGradient>
      </defs>
    </symbol>

    <symbol id="zapier"   viewBox="0 0 250 250" fill="none" xmlns="http://www.w3.org/2000/svg">
      <path d="M128.080089,-0.000183105 C135.311053,0.0131003068 142.422517,0.624138494 149.335663,1.77979593 L149.335663,1.77979593 L149.335663,76.2997796 L202.166953,23.6044907 C208.002065,27.7488446 213.460883,32.3582023 218.507811,37.3926715 C223.557281,42.4271407 228.192318,47.8867213 232.346817,53.7047992 L232.346817,53.7047992 L179.512985,106.400063 L254.227854,106.400063 C255.387249,113.29414 256,120.36111 256,127.587243 L256,127.587243 L256,127.759881 C256,134.986013 255.387249,142.066204 254.227854,148.960282 L254.227854,148.960282 L179.500273,148.960282 L232.346817,201.642324 C228.192318,207.460402 223.557281,212.919983 218.523066,217.954452 L218.523066,217.954452 L218.507811,217.954452 C213.460883,222.988921 208.002065,227.6115 202.182208,231.742607 L202.182208,231.742607 L149.335663,179.04709 L149.335663,253.5672 C142.435229,254.723036 135.323765,255.333244 128.092802,255.348499 L128.092802,255.348499 L127.907197,255.348499 C120.673691,255.333244 113.590195,254.723036 106.677048,253.5672 L106.677048,253.5672 L106.677048,179.04709 L53.8457596,231.742607 C42.1780766,223.466917 31.977435,213.278734 23.6658953,201.642324 L23.6658953,201.642324 L76.4997269,148.960282 L1.78485803,148.960282 C0.612750404,142.052729 0,134.946095 0,127.719963 L0,127.719963 L0,127.349037 C0.0121454869,125.473817 0.134939797,123.182933 0.311311815,120.812834 L0.36577283,120.099764 C0.887996182,113.428547 1.78485803,106.400063 1.78485803,106.400063 L1.78485803,106.400063 L76.4997269,106.400063 L23.6658953,53.7047992 C27.8076812,47.8867213 32.4300059,42.4403618 37.4769335,37.4193681 L37.4769335,37.4193681 L37.5023588,37.3926715 C42.5391163,32.3582023 48.0106469,27.7488446 53.8457596,23.6044907 L53.8457596,23.6044907 L106.677048,76.2997796 L106.677048,1.77979593 C113.590195,0.624138494 120.688946,0.0131003068 127.932622,-0.000183105 L127.932622,-0.000183105 L128.080089,-0.000183105 Z M128.067377,95.7600714 L127.945335,95.7600714 C118.436262,95.7600714 109.32891,97.5001809 100.910584,100.661566 C97.7553011,109.043534 96.0085811,118.129275 95.9958684,127.613685 L95.9958684,127.733184 C96.0085811,137.217594 97.7553011,146.303589 100.923296,154.685303 C109.32891,157.846943 118.436262,159.587052 127.945335,159.587052 L128.067377,159.587052 C137.576449,159.587052 146.683802,157.846943 155.089415,154.685303 C158.257411,146.290368 160.004131,137.217594 160.004131,127.733184 L160.004131,127.613685 C160.004131,118.129275 158.257411,109.043534 155.089415,100.661566 C146.683802,97.5001809 137.576449,95.7600714 128.067377,95.7600714 Z" fill="#FF4A00" fill-rule="nonzero">
    </path>
    </symbol>

    <symbol id="protocol"  viewBox="0 0 163 82" fill="none" xmlns="http://www.w3.org/2000/svg">
      <path d="M159.708 24.8987C156.6 17.5737 151.437 11.3579 144.928 6.9581C141.688 4.7714 138.104 3.03204 134.258 1.84595C130.437 0.634085 126.354 0.00127193 122.14 0.00127193C116.737 0.00127193 111.547 1.05628 106.806 2.98081C106.409 3.13735 106.041 3.29452 105.674 3.47969C101.405 5.35013 97.5049 7.98479 94.1602 11.1209C93.0797 12.1476 92.053 13.228 91.0238 14.4399C89.2074 16.5213 87.337 18.9192 85.5181 21.3426C85.15 21.8415 84.7539 22.369 84.3861 22.871C83.3851 24.2397 73.8194 38.2565 72.1342 40.7597C71.2904 42.0228 70.2895 43.4456 69.2087 44.9998C68.972 45.3422 68.7098 45.7125 68.4474 46.0803C66.6542 48.6354 64.6524 51.3238 62.8077 53.696C61.8866 54.8796 60.963 55.9858 60.173 56.9094C59.3576 57.8562 58.6192 58.6204 58.0917 59.1219C55.8277 61.2548 53.1647 62.9941 50.2421 64.1802C47.317 65.3663 44.129 66.0249 40.7559 66.0249C38.4378 66.0249 36.1993 65.708 34.0924 65.1293C33.012 64.8388 31.957 64.4707 30.9303 64.0231C26.3972 62.1243 22.5249 58.9109 19.8107 54.8792C18.442 52.8519 17.3612 50.6392 16.6231 48.267C15.9126 45.8948 15.4911 43.3941 15.4911 40.7594C15.4911 37.2552 16.2037 33.962 17.4668 30.9309C19.3914 26.4004 22.6047 22.5542 26.6364 19.8139C28.6637 18.4426 30.8762 17.3901 33.2484 16.6517C35.618 15.9133 38.1213 15.4943 40.7559 15.4943C44.129 15.5197 47.317 16.1528 50.2421 17.3364C53.165 18.5479 55.8277 20.2615 58.0917 22.3944C58.6192 22.8962 59.3576 23.6858 60.173 24.6094C61.5958 26.269 63.2811 28.4019 64.9689 30.643C65.6275 31.5383 66.2861 32.4336 66.9447 33.3546C69.4737 29.6678 73.899 23.1867 76.2171 19.8393C75.8235 19.3118 75.4274 18.7872 75.0335 18.2597C73.9785 16.9139 72.9238 15.625 71.8717 14.4389C70.8167 13.2271 69.8157 12.1466 68.7353 11.1199C65.1 7.69272 60.8062 4.90153 56.0898 2.97954C51.348 1.05501 46.1563 0 40.7559 0C35.1446 0 29.77 1.13455 24.8713 3.21593C17.5467 6.29824 11.3538 11.4619 6.95396 17.9686C4.76727 21.2106 3.03045 24.8175 1.81859 28.6383C0.632814 32.4857 0 36.5432 0 40.7601C0 46.3714 1.132 51.746 3.18793 56.6189C6.29569 63.9696 11.4594 70.1625 17.9406 74.562C21.208 76.749 24.7921 78.4855 28.6383 79.6974C32.4587 80.8835 36.5419 81.5163 40.7562 81.5163C46.1566 81.5163 51.3486 80.4613 56.0901 78.5396C60.8065 76.6151 65.0746 73.8233 68.7101 70.4247L68.7356 70.3989C69.8164 69.398 70.8173 68.2892 71.872 67.0774C73.6884 64.996 75.5588 62.6006 77.3777 60.1769C77.7458 59.6751 78.1419 59.1734 78.5097 58.6742C79.5106 57.2772 92.6063 38.071 93.6845 36.5171C93.9238 36.1748 94.1863 35.807 94.4484 35.4367C96.2419 32.9073 98.2434 30.1934 100.088 27.8238C101.009 26.6377 101.933 25.5312 102.723 24.6101C103.538 23.6607 104.277 22.8965 104.804 22.3951C107.068 20.2622 109.731 18.5486 112.654 17.337C113.367 17.0488 114.077 16.8124 114.815 16.5728C117.133 15.8888 119.582 15.5207 122.14 15.4949C125.644 15.5203 128.963 16.205 131.965 17.4964C136.496 19.3926 140.371 22.606 143.083 26.6377C144.454 28.6675 145.534 30.8803 146.27 33.2496C147.009 35.6218 147.405 38.1251 147.405 40.7597C147.405 44.2639 146.692 47.5829 145.429 50.5854C143.504 55.1159 140.291 58.9908 136.259 61.7024C134.232 63.0737 132.02 64.1545 129.647 64.8646C127.304 65.603 124.775 66.0252 122.14 66.0252C118.767 66.0252 115.579 65.3666 112.654 64.1806C109.731 62.9945 107.068 61.2551 104.804 59.1222C104.276 58.6204 103.538 57.8308 102.722 56.9097C101.3 55.276 99.6121 53.1147 97.9265 50.8765C97.2425 49.9809 96.5836 49.0573 95.925 48.1362C95.7141 48.4525 95.5031 48.7693 95.2664 49.1114C90.9185 55.4869 88.1782 59.5183 86.6781 61.7028C87.0716 62.2303 87.4681 62.732 87.8616 63.2595C88.9166 64.6024 89.9713 65.8941 91.0235 67.0774C92.0524 68.2889 93.0794 69.398 94.1599 70.3989C97.7951 73.8233 102.089 76.6151 106.805 78.5396C111.547 80.4613 116.737 81.5163 122.14 81.5163C127.751 81.5163 133.126 80.3843 137.998 78.3287C145.349 75.2206 151.539 70.0569 155.941 63.5477C158.126 60.3086 159.893 56.7245 161.077 52.878C162.263 49.0573 162.896 44.9744 162.896 40.7601C162.896 35.1487 161.764 29.7741 159.708 24.8987Z" fill="currentColor" />
    </symbol>
     
    <symbol id="nwc"  viewBox="0 0 381 381" fill="none" xmlns="http://www.w3.org/2000/svg">
      <path d="M0 0 C4.44211098 3.88605364 8.73523338 7.92116326 13 12 C13.67804688 12.63679688 14.35609375 13.27359375 15.0546875 13.9296875 C47.76182634 45.4310332 67.21696298 93.71837014 68.203125 138.765625 C68.77712821 193.25596749 50.99383806 241.8827517 13.03320312 281.30102539 C-18.42906771 313.35766265 -64.32586576 336.53018637 -109.85879517 337.18980408 C-110.53832245 337.19419998 -111.21784973 337.19859589 -111.91796875 337.203125 C-112.64905853 337.21013931 -113.38014832 337.21715363 -114.13339233 337.22438049 C-116.48482488 337.24180393 -118.83600523 337.2482345 -121.1875 337.25 C-122.39477249 337.25101212 -122.39477249 337.25101212 -123.62643433 337.25204468 C-136.29304495 337.2351859 -148.58122497 336.70547171 -161 334 C-161.79035645 333.82839355 -162.58071289 333.65678711 -163.39501953 333.47998047 C-208.97020071 323.19592567 -251.03949626 296.50122812 -278 258 C-278.43376953 257.38882324 -278.86753906 256.77764648 -279.31445312 256.14794922 C-295.49821792 233.10063813 -306.05671765 206.68109219 -311 179 C-311.22558594 177.74316406 -311.45117188 176.48632812 -311.68359375 175.19140625 C-318.88711871 125.85968017 -306.66790471 74.24140923 -277.1015625 34.06640625 C-257.58556402 8.18170732 -233.34050403 -12.44190784 -203.85400391 -26.13867188 C-202.13854509 -26.9356351 -200.43395928 -27.75589062 -198.73046875 -28.578125 C-134.33480329 -58.16742715 -53.72031403 -45.50599857 0 0 Z " fill="#568B9A" transform="translate(313,44)"/>
      <path d="M0 0 C0.65597168 0.20963379 1.31194336 0.41926758 1.98779297 0.63525391 C26.73753169 8.70298555 48.48980594 22.89662339 67 41 C67.7734375 41.7115625 68.546875 42.423125 69.34375 43.15625 C97.99907123 70.15039319 115.42950561 111.82373804 117.12573242 150.89624023 C117.50724174 165.83046467 117.0067925 180.34497574 114 195 C113.81195801 195.93344238 113.62391602 196.86688477 113.43017578 197.82861328 C109.60117464 215.88309997 109.60117464 215.88309997 103.625 220.3125 C101.78207428 221.27258705 99.90174679 222.16244312 98 223 C96.78177622 223.64223784 95.5685117 224.29393833 94.359375 224.953125 C85.25123254 229.83447224 75.7994442 233.73104533 66 237 C65.05600342 237.31807617 64.11200684 237.63615234 63.1394043 237.96386719 C20.05118477 251.90716903 -31.00936865 249.96832812 -71.578125 229.42578125 C-92.86009916 218.09842747 -109.81929564 200.7038611 -117 177.375 C-119.5703191 165.20771024 -119.95923945 149.54363507 -115 138 C-114.62875 137.10837158 -114.62875 137.10837158 -114.25 136.19873047 C-106.72534498 118.50621117 -94.51406529 105.82722485 -76.75 98.0625 C-62.059642 92.13965335 -44.08500458 91.25438369 -29.36743164 97.37084961 C-12.48040573 105.02233571 -1.09596929 116.85959225 7.5625 133 C7.89685059 133.62245605 8.23120117 134.24491211 8.57568359 134.88623047 C10.29720684 138.22694549 11.48445399 141.2711193 12 145 C12.66 145 13.32 145 14 145 C11.67817075 133.19964426 8.77827684 122.05422254 4 111 C3.71672852 110.34290039 3.43345703 109.68580078 3.14160156 109.00878906 C-1.77808563 97.87018236 -8.33568762 88.42220648 -16 79 C-17.12728516 77.59427734 -17.12728516 77.59427734 -18.27734375 76.16015625 C-35.03163999 56.41067856 -59.30637144 44.3339871 -84 38 C-85.74796875 37.51853516 -85.74796875 37.51853516 -87.53125 37.02734375 C-119.14582317 29.37291444 -149.87665606 37.77474798 -178 52 C-178 48.32519895 -177.34830924 47.95471703 -174.84375 45.41015625 C-174.15958008 44.7143042 -173.47541016 44.01845215 -172.77050781 43.30151367 C-171.64660645 42.1932019 -171.64660645 42.1932019 -170.5 41.0625 C-169.7275293 40.29977783 -168.95505859 39.53705566 -168.15917969 38.7512207 C-145.86091693 17.1239073 -118.26955575 2.67516404 -88 -4 C-86.68432685 -4.34156581 -85.36923662 -4.6853835 -84.0546875 -5.03125 C-56.82311631 -11.87193611 -26.38984022 -8.6146858 0 0 Z " fill="#FEF8E9" transform="translate(242,30)"/>
      <path d="M0 0 C11.44865114 7.49636152 19.47640364 18.1444647 23.38891602 31.31542969 C26.2190348 45.07616863 24.17024071 59.45304799 16.98046875 71.42578125 C8.34263694 84.01623038 -3.13527716 91.64285975 -18.125 94.90234375 C-32.49411208 97.12002559 -45.39764422 93.85818504 -57.1875 85.375 C-67.42210932 77.70325825 -74.90222974 67.1052996 -77.1875 54.375 C-78.33709626 42.43092945 -78.52206028 30.93260046 -72.1875 20.375 C-71.51847656 19.18777344 -71.51847656 19.18777344 -70.8359375 17.9765625 C-63.73734996 6.35708681 -53.68010822 -1.29367388 -40.859375 -5.79296875 C-26.90578549 -8.95479276 -12.50390946 -6.81327574 0 0 Z " fill="#F5BA47" transform="translate(217.1875,146.625)"/>
    </symbol>
       
    <symbol
      id="react"
  
      viewBox="0 0 23 21"
      fill="none"
      xmlns="http://www.w3.org/2000/svg"
    >
     <g clip-path="url(#clip0_24_33)">
        <path d="M11.5002 12.2818C12.6324 12.2818 13.5502 11.3639 13.5502 10.2318C13.5502 9.09958 12.6324 8.18176 11.5002 8.18176C10.368 8.18176 9.4502 9.09958 9.4502 10.2318C9.4502 11.3639 10.368 12.2818 11.5002 12.2818Z" fill="#61DAFB"/>
        <path d="M11.5 14.4317C17.5751 14.4317 22.5 12.5513 22.5 10.2317C22.5 7.91214 17.5751 6.03174 11.5 6.03174C5.42487 6.03174 0.5 7.91214 0.5 10.2317C0.5 12.5513 5.42487 14.4317 11.5 14.4317Z" stroke="#61DAFB"/>
        <path d="M7.86259 12.3317C10.9002 17.593 14.9911 20.9178 16.9999 19.758C19.0087 18.5982 18.1748 13.393 15.1372 8.13175C12.0996 2.87053 8.00873 -0.454329 5.9999 0.705469C3.99107 1.86527 4.82503 7.07053 7.86259 12.3317Z" stroke="#61DAFB"/>
        <path d="M7.86259 8.13176C4.82503 13.393 3.99107 18.5982 5.9999 19.758C8.00873 20.9178 12.0996 17.593 15.1372 12.3318C18.1748 7.07054 19.0087 1.86528 16.9999 0.705481C14.9911 -0.454317 10.9002 2.87054 7.86259 8.13176Z" stroke="#61DAFB"/>
      </g>
      <defs>
      <clipPath id="clip0_24_33">
      <rect width="23" height="20.4635" fill="white"/>
      </clipPath>
      </defs>
    </symbol>

    <symbol
      id="vercel" 
      viewBox="0 0 13 11"
      fill="none"
      xmlns="http://www.w3.org/2000/svg"
    >
      <path
        fillRule="evenodd"
        clipRule="evenodd"
        d="M6.5 0L13 11H0L6.5 0Z"
        fill="currentColor"
      />
    </symbol>

    <symbol id="aws" xmlns="http://www.w3.org/2000/svg" fill="none" viewBox="0 0 304 182">
      <g>
        <path fill="currentColor" d="M86.4,66.4c0,3.7,0.4,6.7,1.1,8.9c0.8,2.2,1.8,4.6,3.2,7.2c0.5,0.8,0.7,1.6,0.7,2.3c0,1-0.6,2-1.9,3l-6.3,4.2   c-0.9,0.6-1.8,0.9-2.6,0.9c-1,0-2-0.5-3-1.4C76.2,90,75,88.4,74,86.8c-1-1.7-2-3.6-3.1-5.9c-7.8,9.2-17.6,13.8-29.4,13.8   c-8.4,0-15.1-2.4-20-7.2c-4.9-4.8-7.4-11.2-7.4-19.2c0-8.5,3-15.4,9.1-20.6c6.1-5.2,14.2-7.8,24.5-7.8c3.4,0,6.9,0.3,10.6,0.8   c3.7,0.5,7.5,1.3,11.5,2.2v-7.3c0-7.6-1.6-12.9-4.7-16c-3.2-3.1-8.6-4.6-16.3-4.6c-3.5,0-7.1,0.4-10.8,1.3c-3.7,0.9-7.3,2-10.8,3.4   c-1.6,0.7-2.8,1.1-3.5,1.3c-0.7,0.2-1.2,0.3-1.6,0.3c-1.4,0-2.1-1-2.1-3.1v-4.9c0-1.6,0.2-2.8,0.7-3.5c0.5-0.7,1.4-1.4,2.8-2.1   c3.5-1.8,7.7-3.3,12.6-4.5c4.9-1.3,10.1-1.9,15.6-1.9c11.9,0,20.6,2.7,26.2,8.1c5.5,5.4,8.3,13.6,8.3,24.6V66.4z M45.8,81.6   c3.3,0,6.7-0.6,10.3-1.8c3.6-1.2,6.8-3.4,9.5-6.4c1.6-1.9,2.8-4,3.4-6.4c0.6-2.4,1-5.3,1-8.7v-4.2c-2.9-0.7-6-1.3-9.2-1.7   c-3.2-0.4-6.3-0.6-9.4-0.6c-6.7,0-11.6,1.3-14.9,4c-3.3,2.7-4.9,6.5-4.9,11.5c0,4.7,1.2,8.2,3.7,10.6   C37.7,80.4,41.2,81.6,45.8,81.6z M126.1,92.4c-1.8,0-3-0.3-3.8-1c-0.8-0.6-1.5-2-2.1-3.9L96.7,10.2c-0.6-2-0.9-3.3-0.9-4   c0-1.6,0.8-2.5,2.4-2.5h9.8c1.9,0,3.2,0.3,3.9,1c0.8,0.6,1.4,2,2,3.9l16.8,66.2l15.6-66.2c0.5-2,1.1-3.3,1.9-3.9c0.8-0.6,2.2-1,4-1   h8c1.9,0,3.2,0.3,4,1c0.8,0.6,1.5,2,1.9,3.9l15.8,67l17.3-67c0.6-2,1.3-3.3,2-3.9c0.8-0.6,2.1-1,3.9-1h9.3c1.6,0,2.5,0.8,2.5,2.5   c0,0.5-0.1,1-0.2,1.6c-0.1,0.6-0.3,1.4-0.7,2.5l-24.1,77.3c-0.6,2-1.3,3.3-2.1,3.9c-0.8,0.6-2.1,1-3.8,1h-8.6c-1.9,0-3.2-0.3-4-1   c-0.8-0.7-1.5-2-1.9-4L156,23l-15.4,64.4c-0.5,2-1.1,3.3-1.9,4c-0.8,0.7-2.2,1-4,1H126.1z M254.6,95.1c-5.2,0-10.4-0.6-15.4-1.8   c-5-1.2-8.9-2.5-11.5-4c-1.6-0.9-2.7-1.9-3.1-2.8c-0.4-0.9-0.6-1.9-0.6-2.8v-5.1c0-2.1,0.8-3.1,2.3-3.1c0.6,0,1.2,0.1,1.8,0.3   c0.6,0.2,1.5,0.6,2.5,1c3.4,1.5,7.1,2.7,11,3.5c4,0.8,7.9,1.2,11.9,1.2c6.3,0,11.2-1.1,14.6-3.3c3.4-2.2,5.2-5.4,5.2-9.5   c0-2.8-0.9-5.1-2.7-7c-1.8-1.9-5.2-3.6-10.1-5.2L246,52c-7.3-2.3-12.7-5.7-16-10.2c-3.3-4.4-5-9.3-5-14.5c0-4.2,0.9-7.9,2.7-11.1   c1.8-3.2,4.2-6,7.2-8.2c3-2.3,6.4-4,10.4-5.2c4-1.2,8.2-1.7,12.6-1.7c2.2,0,4.5,0.1,6.7,0.4c2.3,0.3,4.4,0.7,6.5,1.1   c2,0.5,3.9,1,5.7,1.6c1.8,0.6,3.2,1.2,4.2,1.8c1.4,0.8,2.4,1.6,3,2.5c0.6,0.8,0.9,1.9,0.9,3.3v4.7c0,2.1-0.8,3.2-2.3,3.2   c-0.8,0-2.1-0.4-3.8-1.2c-5.7-2.6-12.1-3.9-19.2-3.9c-5.7,0-10.2,0.9-13.3,2.8c-3.1,1.9-4.7,4.8-4.7,8.9c0,2.8,1,5.2,3,7.1   c2,1.9,5.7,3.8,11,5.5l14.2,4.5c7.2,2.3,12.4,5.5,15.5,9.6c3.1,4.1,4.6,8.8,4.6,14c0,4.3-0.9,8.2-2.6,11.6   c-1.8,3.4-4.2,6.4-7.3,8.8c-3.1,2.5-6.8,4.3-11.1,5.6C264.4,94.4,259.7,95.1,254.6,95.1z"/>
        <g fill="#FF9900" fillRule="evenodd" clipRule="evenodd">
          <path d="M273.5,143.7c-32.9,24.3-80.7,37.2-121.8,37.2c-57.6,0-109.5-21.3-148.7-56.7c-3.1-2.8-0.3-6.6,3.4-4.4    c42.4,24.6,94.7,39.5,148.8,39.5c36.5,0,76.6-7.6,113.5-23.2C274.2,133.6,278.9,139.7,273.5,143.7z"/>
          <path d="M287.2,128.1c-4.2-5.4-27.8-2.6-38.5-1.3c-3.2,0.4-3.7-2.4-0.8-4.5c18.8-13.2,49.7-9.4,53.3-5    c3.6,4.5-1,35.4-18.6,50.2c-2.7,2.3-5.3,1.1-4.1-1.9C282.5,155.7,291.4,133.4,287.2,128.1z"/>
        </g>
      </g> 
    </symbol>

    <symbol id="expo" viewBox="0 0 71 20">
      <g clip-path="url(#clip0_24_25)">
        <path d="M9.25817 6.342C9.41617 6.112 9.58917 6.082 9.73017 6.082C9.87017 6.082 10.1042 6.112 10.2622 6.342C12.3222 9.148 16.5942 16.55 16.9892 16.953C17.5742 17.55 18.3772 17.178 18.8432 16.501C19.3032 15.834 19.4302 15.366 19.4302 14.867C19.4302 14.527 12.7772 2.253 12.1062 1.231C11.4622 0.248 11.2522 0 10.1502 0H9.32517C8.22517 0 8.06617 0.248 7.42217 1.23C6.75017 2.254 0.097168 14.528 0.097168 14.868C0.097168 15.368 0.224168 15.835 0.684168 16.502C1.15017 17.179 1.95317 17.552 2.53817 16.954C2.93317 16.551 7.19917 9.149 9.25817 6.344V6.342ZM24.1992 1.105V16.449H33.5492V13.336H27.4242V10.092H32.8742V6.98H27.4242V4.218H33.5492V1.105H24.1992ZM46.2502 16.449L42.3702 10.881L45.9892 5.686H42.3272L40.5402 8.23L38.7752 5.687H35.0692L38.6872 10.904L34.8302 16.45H38.4912L40.5182 13.535L42.5452 16.45H46.2502V16.449ZM53.8222 5.467C52.3402 5.467 51.1852 6.081 50.4442 7.199V5.686H47.3702V20H50.4432V14.937C51.1832 16.054 52.3392 16.668 53.8212 16.668C56.5892 16.668 58.7912 14.148 58.7912 11.057C58.7912 7.966 56.5902 5.467 53.8222 5.467ZM53.1252 13.709C51.6212 13.709 50.4442 12.569 50.4442 11.057C50.4442 9.567 51.6212 8.404 53.1242 8.404C54.6072 8.404 55.8052 9.588 55.8052 11.057C55.8052 12.547 54.6072 13.709 53.1252 13.709ZM65.3132 5.467C62.1532 5.467 59.7552 7.878 59.7552 11.079C59.7552 14.279 62.1522 16.669 65.3122 16.669C68.4512 16.669 70.8702 14.279 70.8702 11.079C70.8702 7.879 68.4502 5.467 65.3122 5.467H65.3132ZM65.3132 8.427C66.7512 8.427 67.8632 9.544 67.8632 11.079C67.8632 12.569 66.7512 13.709 65.3132 13.709C63.8532 13.709 62.7632 12.569 62.7632 11.079C62.7632 9.544 63.8532 8.426 65.3132 8.426V8.427Z" fill="currentColor" />
      </g>
      <defs>
        <clipPath id="clip0_24_25">
        <rect width="71" height="20" fill="currentColor"/>
      </clipPath>
      </defs>
    </symbol>

    <symbol id="rails" viewBox="0 0 411 155">
      <path fill-rule="evenodd" clip-rule="evenodd" d="M352.6 129.5V147.6H385.3C392 147.6 403.5 142.7 403.9 129V122C403.9 110.3 394.3 103.4 385.3 103.4H369V95H401.3V76.8H370.3C362.3 76.8 351.6 83.4 351.6 95.7V102C351.6 114.3 362.2 120.6 370.3 120.6C392.8 120.7 364.9 120.6 385.7 120.6V129.4M177.4 125.1C177.4 125.1 194.9 123.6 194.9 101C194.9 78.4 173.7 76.3 173.7 76.3H135.5V147.6H154.7V130.4L171.3 147.6H199.7L177.4 125.1ZM170 110.5H154.7V94.2H170.1C170.1 94.2 174.4 95.8 174.4 102.3C174.4 108.8 170 110.5 170 110.5ZM242.3 76.8H222.8C208.9 76.8 204.2 89.4 204.2 95.4V147.6H223.7V135.1H242V147.6H260.9V95.4C260.9 80.2 247.1 76.8 242.3 76.8ZM242 114.9H223.6V97.6C223.6 97.6 223.6 93.7 229.7 93.7H236.4C241.8 93.7 241.9 97.6 241.9 97.6V114.9H242Z" fill="#CC0000"/>
      <path d="M290.1 76.8H269.8V147.6H290.1V76.8Z" fill="#CC0000"/>
      <path fill-rule="evenodd" clip-rule="evenodd" d="M318.6 129.3V76.8H298.4V129.3V147.6H318.6H345.9V129.3H318.6Z" fill="#CC0000"/>
      <path fill-rule="evenodd" clip-rule="evenodd" d="M15 147.6H94C94 147.6 78.9 78.7 128.9 50.8C139.8 45.5 174.5 25.7 231.3 67.7C233.1 66.2 234.8 65 234.8 65C234.8 65 182.8 13.1 124.9 18.9C95.8 21.5 60 48 39 83C18 118 15 147.6 15 147.6Z" fill="#CC0000"/>
      <path fill-rule="evenodd" clip-rule="evenodd" d="M15 147.6H94C94 147.6 78.9 78.7 128.9 50.8C139.8 45.5 174.5 25.7 231.3 67.7C233.1 66.2 234.8 65 234.8 65C234.8 65 182.8 13.1 124.9 18.9C95.8 21.5 60 48 39 83C18 118 15 147.6 15 147.6Z" fill="#CC0000"/>
      <path fill-rule="evenodd" clip-rule="evenodd" d="M15 147.6H94C94 147.6 78.9 78.7 128.9 50.8C139.8 45.5 174.5 25.7001 231.3 67.7001C233.1 66.2001 234.8 65 234.8 65C234.8 65 182.8 13.1 124.9 18.9C95.7 21.5 59.9 48 38.9 83C17.9 118 15 147.6 15 147.6ZM179.6 24.5L180 17.8C179.1 17.3 176.6 16.1 170.3 14.3L169.9 20.9C173.2 22 176.4 23.2 179.6 24.5Z" fill="#CC0000"/>
      <path fill-rule="evenodd" clip-rule="evenodd" d="M170.1 45.7L169.7 52C173 52.1 176.3 52.5 179.6 53.2L180 47C176.6 46.3 173.3 45.9 170.1 45.7ZM133.1 14.5H134.1L132.1 8.40002C129 8.40002 125.8 8.60002 122.5 9.00002L124.4 14.9C127.3 14.6 130.2 14.5 133.1 14.5ZM137.9 51.3L140.2 58.2C143.1 56.8 146 55.6 148.9 54.7L146.7 48.1C143.3 49.1 140.4 50.2 137.9 51.3ZM92.5 25L88 18.1C85.5 19.4 82.9 20.8 80.2 22.4L84.8 29.4C87.4 27.8 89.9 26.3 92.5 25ZM113 70L117.8 77.2C119.5 74.7 121.5 72.4 123.7 70.1L119.2 63.3C116.9 65.4 114.8 67.7 113 70ZM98.5 102.2L106.6 108.6C107 104.7 107.7 100.8 108.7 96.9L101.5 91.2C100.2 94.9 99.3 98.6 98.5 102.2ZM54.7 54.7L47.6 48.5C45 51 42.5 53.5 40.2 56L47.9 62.6C50 59.9 52.3 57.2 54.7 54.7ZM24.5 99.4L13 95.2C11.1 99.5 9 104.5 8 107.2L19.5 111.4C20.8 108 22.9 103.1 24.5 99.4ZM97 127.6C97.2 132.9 97.7 137.2 98.2 140.2L110.2 144.5C109.3 140.6 108.4 136.2 107.8 131.5L97 127.6Z" fill="#CC0000"/>
    </symbol>

    <symbol id="ycombinator" viewBox="0 0 601 122">
      <path d="M0.399902 0.199951H120.7V121.4H0.399902V0.199951Z" fill="#FF5A00"/>
      <path d="M337.3 24.2C338.4 24.3 338.6 25.5999 338.7 26.3999C339 30.4999 339.1 34.4999 339.1 38.5999C339.3 42.4999 339.3 46.3 339.3 50.2C341.5 48.5 343.6 46.7 346.2 45.7C350.3 43.9 355.3 43.8999 359.3 45.9999C363.6 48.1999 366.6 52.3999 368.1 56.8999C369.5 61.1999 369.9 65.7999 369.6 70.2999C369.2 75.5999 367.8 80.9 364.7 85.2C362.9 87.7 360.5 89.8999 357.5 90.9999C352.7 92.6999 347.4 92.0999 343.1 89.3999C341.8 88.5999 340.6 87.3999 339.4 86.3999C338.9 87.9999 338.5 89.4999 338 91.0999C335.7 91.0999 333.5 91.2999 331.2 90.8999C332.1 87.2999 332.1 83.4999 332.2 79.7999C332.4 66.6999 332.2 53.5999 332.1 40.5999C331.8 35.4999 332.2 30.3999 331.3 25.3999C333.4 24.7999 335.3 24.2 337.3 24.2ZM354.1 51.2C352.1 50.8 350.1 50.7999 348.1 50.9999C344.5 51.4999 341.6 53.9999 339.3 56.5999C339.2 57.4999 339.3 58.3 339.2 59.2V79.9999C339.1 80.6999 339.7 81.1999 340.2 81.5999C343.7 84.9999 348.9 86.5999 353.7 85.3999C356 84.7999 358 83.3 359.1 81.2C360.8 78.3 361.4 74.8999 361.7 71.5999C361.9 69.0999 362.2 66.4999 361.9 63.9999C361.8 61.0999 361.2 57.9999 359.7 55.4999C358.5 53.3999 356.5 51.7 354.1 51.2ZM383.9 25.9999C385.3 25.4999 386.9 25.6 388.3 26.2C389.6 27 390.5 28.1999 391.1 29.5999C392 32.5999 389.6 35.9999 386.5 36.3999C384.1 36.6999 381.5 35.2999 380.8 32.8999C379.8 30.2999 381.3 27.0999 383.9 25.9999ZM170.6 31.4999C174 29.1999 178 27.3999 182.2 27.3999C186.5 27.2999 190.9 27.5999 194.8 29.4999C196.4 30.1999 198 31 199.4 32.2C198.4 33.9 197.1 35.3999 195.9 36.8999C194.3 35.9999 192.8 34.9999 191.1 34.3999C186.9 32.8999 182.1 32.5999 177.9 34.2999C174.4 35.6999 171.5 38.4 169.7 41.7C168.5 44 167.4 46.4999 166.9 49.0999C166.5 51.5999 166.3 54.1999 166.2 56.7999C166.1 60.1999 165.9 63.6999 166.1 67.0999C166.7 71.8999 168.3 76.6999 171.6 80.2999C174.4 83.5999 178.6 85.4999 182.9 85.8999C185.1 85.9999 187.4 85.9999 189.6 85.4999C192.3 84.8999 194.6 83.4999 197.1 82.3999C198.5 83.7999 199.8 85.3999 201 87.0999C199.2 88.0999 197.3 89.0999 195.3 89.8999C190.1 91.9999 184.2 92.0999 178.7 91.4999C174.7 90.6999 171 88.5999 167.9 85.9999C164.3 82.8999 161.7 78.7999 160.2 74.2999C159.1 71.2999 158.6 68.0999 158.3 64.9999C158.2 62.5999 157.9 60.2999 158.2 57.8999C158.3 53.3999 159 48.9999 160.8 44.7999C162.8 39.5999 166 34.6999 170.6 31.4999Z" fill="currentColor"/>
      <path d="M36.1001 30.4C36.6001 30.3 37.2001 30.1 37.7001 30.1C40.3001 30 42.9001 30.2 45.5001 30.3C45.9001 30.2 46.1001 30.6 46.2001 30.9C50.1001 39 54.0001 47.2 58.0001 55.3C58.9001 57 59.6001 58.7 60.6001 60.3C61.4001 59 62.1001 57.6 62.8001 56.2C67.3001 47.5 71.5001 38.8 75.9001 30.1C78.8001 30.2 81.7001 29.9 84.6001 30.4C84.1001 32.1 83.1001 33.5 82.4001 35.1C76.6001 46.2 70.7001 57.3 64.9001 68.4C64.7001 68.8 64.6001 69.3 64.6001 69.8C64.6001 77.7 64.6001 85.7 64.6001 93.6C61.8001 93.6 59.0001 93.6 56.2001 93.6C56.2001 85.9 56.2001 78.1 56.2001 70.4C56.2001 69.6 56.3001 68.7 55.8001 67.9C50.4001 57.8 45.1001 47.7 39.7001 37.5C38.5001 35.1 37.2001 32.8 36.1001 30.4Z" fill="#FFFEFE"/>
      <path d="M501.3 33.8999C503.6 33.1999 506 32.6 508.4 32.2C508 36.6 507.7 40.9999 507.6 45.4999C511.3 45.5999 515.1 45.6 518.8 45.7C518.2 47.4 517.5 49.1 516.7 50.7C513.5 50.7 510.4 50.7 507.2 50.7C507.2 54.8 507.2 58.8999 507.2 62.9999C507.2 66.1999 507.4 69.5 507.3 72.7C507.4 76.4 507.2 80.1 507.6 83.7C507.7 85.2 509.1 86.3 510.4 86.7C512.7 87.2 515.1 86.9999 517.3 86.4999C517.9 87.7999 518.2 89.3 518.1 90.7C516.1 91.8 513.7 92 511.4 92.2C508.2 92.3 504.6 91.7999 502.3 89.2999C500.4 87.4999 500.6 84.6999 500.3 82.2999C500.1 77.0999 500.2 71.7999 500.1 66.5999C500.1 61.2999 500.1 55.8999 500.1 50.5999C498.1 50.5999 496.1 50.5999 494.1 50.5999C494 48.8999 494 47.0999 494.1 45.3999C496.1 45.3999 498 45.3999 500 45.3999C500.7 41.5999 500.7 37.6999 501.3 33.8999ZM227.9 44.3999C229.8 44.4999 231.7 44.3999 233.5 44.9999C237.7 46.3999 241.2 49.2999 243.4 53.0999C245.3 56.3999 246.6 60.0999 246.7 63.8999C246.9 68.9999 247.1 74.3 245.5 79.2C244 83.8 240.8 87.9 236.4 90.2C232.1 92.4 226.9 92.8999 222.3 91.5999C218.1 90.4999 214.5 87.6999 212.1 84.0999C209.4 80.1999 208.5 75.4999 208.4 70.7999C208.3 66.2999 208.2 61.6999 209.7 57.3999C211.1 53.1999 213.8 49.2999 217.6 46.8999C219.3 45.7999 221.2 44.8999 223.2 44.4999C224.8 44.2999 226.4 44.3999 227.9 44.3999ZM224.3 50.2C221.9 50.8 219.6 52.1999 218.3 54.2999C216.4 57.3999 216.1 61.0999 215.9 64.5999C215.7 67.1999 215.9 69.7999 216.1 72.3999C216.5 75.4999 217.1 78.7999 218.6 81.5999C220.2 84.5999 223.6 86.0999 226.9 86.2999C230 86.4999 233.4 85.6999 235.6 83.2999C237.4 81.2999 238.4 78.7999 238.8 76.0999C239.3 72.7999 239.2 69.5 239.1 66.2C239 62.8 238.7 59.1999 237.3 55.9999C236.5 53.9999 235 52.2999 233.1 51.2999C230.5 49.6999 227.2 49.5 224.3 50.2ZM259.2 45.8999C261.3 45.1999 263.4 44.6999 265.6 44.2999C266.5 46.2999 267 48.5 267.2 50.7C268.7 49.9 269.8 48.6999 271.2 47.7999C274.3 45.4999 278.1 44.0999 282 44.2999C282.9 44.3999 283.7 44.5999 284.5 44.9999C285.8 45.6999 287.2 46.3999 288.3 47.3999C289.4 48.4999 290.2 49.8999 291 51.2999C292.8 50.4999 294.1 49.0999 295.7 47.9999C298.4 46.0999 301.5 44.5999 304.9 44.2999C308 43.9999 311.1 44.9999 313.4 47.0999C314.4 48.0999 315.5 49.0999 316 50.3999C316.5 51.6999 316.7 53.0999 316.8 54.4999C317.3 61.7999 317 69.1999 317.3 76.4999C317.3 81.3999 317.3 86.1999 317.3 91.0999C314.9 91.0999 312.5 91.1999 310 91.0999C310 83.7999 310 76.5 310 69.2C310 64.5 310.1 59.7999 309.7 55.0999C309.5 53.5999 308.7 52.1999 307.5 51.2999C306.1 50.3999 304.3 50.4999 302.7 50.5999C299.8 50.8999 297.5 52.6999 295.3 54.3999C294.3 55.2999 293.2 56.0999 292.2 56.9999C291.9 57.1999 292 57.6999 292 57.9999C292 68.9999 292 79.9999 292 90.9999C289.6 90.9999 287.2 90.9999 284.8 90.9999V65.2999C284.8 63.1999 284.8 61.0999 284.7 59.0999C284.6 56.9999 284.8 54.6999 283.8 52.7999C282.3 50.6999 279.4 50.2999 277.1 50.8999C273.5 51.7999 270.3 53.9999 267.6 56.4999C267.2 56.7999 267.2 57.2999 267.2 57.7999C267.2 68.8999 267.2 79.9999 267.2 91.0999C265.1 91.1999 263 91.1999 260.9 91.0999C260.7 79.7999 260.8 68.3999 260.5 56.9999C260.4 54.3999 260.4 51.7999 260.1 49.2999C259.8 48.0999 259.4 46.9999 259.2 45.8999ZM382.2 45.4999C384.5 45.1999 386.8 44.7999 389.1 44.2999C389.4 50.6999 389.3 57.0999 389.3 63.4999C389.3 72.6999 389.3 81.8999 389.3 91.0999C386.9 91.1999 384.5 91.1999 382.1 91.0999C382 77.8999 382.1 64.7999 382.1 51.5999C382.2 49.5999 382.1 47.4999 382.2 45.4999ZM474.9 44.5999C479.8 45.4999 484 49.9999 484.1 55.0999C484.4 62.6999 484 70.2999 484.1 77.8999V80.2C484.1 81.7 484.2 83.2 484.6 84.7C484.9 86.2 486.3 86.9999 487.4 87.8999C486.4 89.2999 485.5 90.8999 484.2 92.0999C483.4 92.7999 482.4 91.9999 481.8 91.5999C480.1 90.2999 478.9 88.3999 477.9 86.4999C476.3 87.3999 475.2 88.6999 473.6 89.5999C471 91.2999 467.9 92.3 464.7 92.2C461.9 92.3 459 91.7999 456.5 90.4999C452.4 88.2999 450.1 83.4999 450.2 78.9999C450.2 74.5999 452.4 70.3 455.9 67.7C460.1 64.5 465.5 63.4999 470.6 63.0999C472.9 62.8999 475.3 62.8999 477.7 62.7999C477.8 60.4999 477.6 58.1999 477.3 55.8999C477 53.9999 476.1 51.9999 474.3 50.9999C472.2 49.8999 469.7 49.8 467.3 50.2C462.9 50.7 458.8 52.6 455.2 55.2C454.2 53.8 453.2 52.4999 452.4 50.9999C452 50.2999 452.6 49.6999 453.2 49.3999C458 46.6999 463.3 44.3999 468.9 44.4999H471.3C472.5 44.3999 473.7 44.3999 474.9 44.5999ZM471.9 67.4999C469.7 67.6999 467.4 67.7999 465.3 68.3999C462.7 69.0999 460.3 70.7999 458.9 73.0999C458.1 74.3999 458.1 75.9999 458 77.4999C458 79.0999 457.8 80.8999 458.4 82.3999C459 83.9999 460.1 85.4999 461.7 86.0999C463.5 86.8999 465.6 86.9999 467.6 86.7999C470 86.4999 472.1 85.1999 473.9 83.7999C475.4 82.4999 476.9 80.8999 477 78.7999C477.3 75.0999 477.2 71.4 477.3 67.7C475.5 67.7 473.7 67.2999 471.9 67.4999ZM550.3 44.7C554.4 45.7 558.1 48.1999 560.5 51.5999C562.5 54.3999 563.8 57.5999 564.4 60.9999C564.9 64.1999 565.1 67.5 564.9 70.7C564.8 76 563.2 81.2999 560 85.4999C557.4 88.8999 553.4 90.9 549.3 91.7C544.3 92.6 538.9 91.7 534.7 88.7C531 86.1 528.7 81.9 527.4 77.7C526.7 75.5 526.6 73.2999 526.4 70.9999C526.3 67.1999 526.3 63.4 527 59.7C528 55.5 530.1 51.3999 533.3 48.3999C535.7 46.1999 538.7 44.7999 541.9 44.3999C544.7 44.0999 547.5 44.2 550.3 44.7ZM542.4 50.0999C539 50.4999 536.3 53.1999 535.2 56.2999C533.8 59.5999 534 63.2 533.9 66.7C534 70 534 73.2999 534.6 76.5999C535 78.7999 535.7 81 537.2 82.7C538.6 84.4 540.7 85.4999 542.8 85.8999C543.6 86.0999 544.5 86.2 545.3 86.2H546.1L546.9 86.0999C548.6 85.8999 550.2 85.3999 551.7 84.5999C553.5 83.5999 554.8 81.6999 555.5 79.7999C556.4 77.4999 556.5 74.9999 556.7 72.5999C556.8 69.6999 556.9 66.7999 556.7 63.8999C556.5 60.8999 556.1 57.7999 554.7 55.0999C553.4 53.0999 551.6 51.3999 549.4 50.3999C547.3 49.7999 544.8 49.7999 542.4 50.0999ZM577.2 45.9999C579.4 45.3999 581.5 44.7 583.7 44.2C584.9 46.4 585.1 48.9999 585.2 51.3999C586.3 50.5999 587.2 49.4999 588.2 48.4999C591.3 45.3999 595.9 43.4999 600.3 44.2999V44.8999C599.3 46.9999 598.7 49.2999 597.8 51.4999C597.7 51.8999 597.1 51.7999 596.8 51.7999C594.9 51.7999 592.8 51.7999 591.1 52.7999C589.4 53.7999 587.9 55.1 586.7 56.7C585.5 58.2 585.7 60.2999 585.7 62.0999C585.6 64.6999 585.5 67.2999 585.6 69.8999C585.6 76.8999 585.6 83.9999 585.6 90.9999C583.2 91.0999 580.8 91.0999 578.4 90.9999C578.4 83.1999 578.4 75.2999 578.4 67.4999C578.4 62.1999 578.4 56.7999 578.2 51.4999C578 49.6999 577.4 47.8999 577.2 45.9999ZM403.5 46.0999C405.6 45.3999 407.8 44.5999 410 44.5999C410.8 46.6999 411.3 48.8999 411.6 51.0999C413.5 49.8999 415.1 48.3 417.1 47.2C420.9 45 425.5 43.3999 429.8 44.9999C432.3 45.8999 434.8 47.2999 436.3 49.5999C437.5 51.1999 437.8 53.3999 438 55.3999C438.4 62.4999 438.3 69.5999 438.3 76.7999C438.3 81.5999 438.4 86.2999 438.4 91.0999C436 91.1999 433.6 91.1999 431.2 91.0999C431.2 83.2999 431 75.3999 431 67.5999C430.9 63.1999 431.1 58.8999 430.6 54.4999C429.9 52.3999 427.9 50.6999 425.7 50.5999C424.1 50.4999 422.4 50.4999 420.8 51.0999C417.4 52.3999 414.3 54.4999 411.5 56.7999C411.4 68.1999 411.5 79.6999 411.5 91.0999C409.4 91.0999 407.3 91.1999 405.2 91.0999C405.2 84.5999 405 78.0999 405 71.5999C404.9 64.8999 405 58.2999 404.6 51.5999C404.5 49.6999 403.9 47.8999 403.5 46.0999Z" fill="black"/>
    </symbol>

    <symbol id="sst" xmlns="http://www.w3.org/2000/svg" viewBox="0 0 256 75"> 
      <path fill-rule="evenodd" clip-rule="evenodd" d="M218.399 20.7061C218.399 20.7061 226.244 3.70391 226.488 3.33275C227.07 2.43536 227.99 1.51254 229.714 0.866821C231 0.388885 233.075 0 236.448 0C240.493 0 242.852 0.597343 244.22 1.26086C247.222 2.71499 247.774 4.78946 247.781 6.62492L247.784 8.44769L248.788 8.43241C250.346 8.43241 251.622 8.69682 252.705 9.56371C253.41 10.1281 254.154 10.9924 254.615 12.6016C254.902 13.6159 255.12 15.248 255.12 17.8792C255.12 20.4646 254.902 22.1348 254.604 23.2229C254.47 23.716 254.312 24.1406 254.137 24.5118C254.119 24.8652 254.009 25.216 253.804 25.5312L247.794 34.6703V39.9759C249.299 39.9886 250.537 40.2606 251.592 41.1072C252.299 41.6715 253.044 42.5359 253.501 44.1451C253.791 45.162 254.01 46.7915 254.01 49.4227C254.01 52.5928 253.659 54.441 253.244 55.5366C252.815 56.6679 243.808 71.7024 243.617 71.8651C243.617 71.8651 241.032 74.0438 237.762 74.0438H225.357C223.569 74.0438 221.375 73.4591 219.883 71.8092C218.892 70.711 218.162 69.1323 218.162 66.8494V21.6594C218.162 21.3264 218.244 21.001 218.399 20.7061Z" fill="#E27152"/>
      <path fill-rule="evenodd" clip-rule="evenodd" d="M164.24 28.2106C165.653 29.7334 166.528 31.818 166.528 34.5407C166.528 37.271 166.347 48.1262 166.258 53.3376C166.228 55.1833 165.653 56.978 164.603 58.4957C161.672 62.7717 155.744 72.0075 155.721 72.0405C155.721 72.0405 154.638 74.0972 148.755 74.0972H109.816C107.752 74.0972 106.102 73.3803 104.948 72.2083C103.807 71.0491 103.12 69.4043 103.12 67.3858C103.12 59.9448 103.12 35.7228 103.12 35.7685C103.12 35.7685 103.128 33.534 104.526 31.2663C105.721 29.3266 114.997 13.26 115.717 12.1999C117.173 10.0568 120.697 8.93317 123.826 8.93317C126.956 8.93317 148.923 9.03745 153.779 9.03745C158.825 9.03745 161.764 10.6975 163.576 12.6219C166.312 15.5277 166.528 19.4884 166.528 21.4916C166.528 23.4237 166.36 25.4396 165.274 27.0285C164.997 27.4327 164.662 27.8344 164.24 28.2106Z" fill="#E27152"/>
      <path fill-rule="evenodd" clip-rule="evenodd" d="M218.782 28.2106C220.196 29.7334 221.07 31.818 221.07 34.5407C221.07 37.271 220.89 48.1262 220.801 53.3376C220.77 55.1833 220.196 56.978 219.146 58.4957C216.215 62.7717 210.286 72.0075 210.264 72.0405C210.264 72.0405 209.181 74.0972 203.298 74.0972H164.359C162.295 74.0972 160.645 73.3803 159.491 72.2083C158.349 71.0491 157.663 69.4043 157.663 67.3858C157.663 59.9448 157.663 35.7228 157.663 35.7685C157.663 35.7685 157.671 33.534 159.069 31.2663C160.264 29.3266 169.54 13.26 170.26 12.1999C171.716 10.0568 175.24 8.93317 178.369 8.93317C181.499 8.93317 203.466 9.03745 208.321 9.03745C213.367 9.03745 216.306 10.6975 218.119 12.6219C220.854 15.5277 221.07 19.4884 221.07 21.4916C221.07 23.4237 220.903 25.4396 219.817 27.0285C219.54 27.4327 219.204 27.8344 218.782 28.2106Z" fill="#E27152"/>
      <path d="M230.525 12.4008L230.446 6.65542C230.446 5.23687 230.542 3.88956 236.926 3.88956C243.22 3.88956 243.841 5.30044 243.846 6.60204L243.858 12.4008L248.78 12.3194C250.199 12.3194 251.188 12.0271 251.188 17.841C251.188 23.05 250.321 23.678 249.187 23.7542V23.7593H243.858V41.5953C243.858 43.924 245.18 43.9392 245.18 43.9392L247.667 43.863C249.088 43.863 250.077 43.5705 250.077 49.3871C250.077 55.2011 248.994 55.3079 247.667 55.3079C247.667 55.3079 236.316 55.3079 233.814 55.3079C230.123 55.3079 230.525 52.5318 230.525 50.8463V23.7593L228.618 23.7669C227.199 23.7669 226.211 24.0593 226.211 18.2428C226.211 12.4288 227.291 12.322 228.618 12.322L230.525 12.4008Z" fill="#FFFBF9"/>
      <path fill-rule="evenodd" clip-rule="evenodd" d="M149.96 40.0268C149.96 39.7472 149.851 39.4827 149.652 39.2844C149.457 39.0887 149.19 38.9794 148.913 38.9794C144.123 38.9921 124.574 39.0404 124.574 39.0404C120.918 39.0404 117.163 37.2406 117.163 33.6027C117.163 32.3672 117.067 21.4739 117.067 21.0951C117.067 15.0345 120.623 12.5 124.68 12.5H154.526C163.368 12.5 163.35 20.2181 163.35 22.5493C163.35 24.0619 163.642 26.0956 157.828 26.0956C152.012 26.0956 151.424 25.2261 151.424 24.5372C151.424 23.8483 150.962 23.4644 150.484 23.4644C150.006 23.4644 135.932 23.4847 131.486 23.4847C131.155 23.4847 130.84 23.6144 130.606 23.8483C130.375 24.0796 130.243 24.3949 130.243 24.7253C130.243 25.3711 130.243 26.6473 130.243 27.293C130.243 27.6209 130.375 27.9362 130.606 28.17C130.84 28.4039 131.155 28.5336 131.486 28.5336C136.797 28.5336 157.348 28.5336 157.348 28.5336C161.003 28.5336 163.35 30.3309 163.35 33.9713V50.4142C163.35 53.6453 160.846 55.557 156.788 55.557H125.319C119.398 55.557 117.163 52.092 117.163 47.7627V44.0536C117.163 43.2604 117.847 41.4987 123.664 41.4987C129.478 41.4987 129.752 42.2868 130.073 42.9249C130.388 43.5579 130.881 44.0536 131.486 44.0536C132.088 44.0536 144.815 44.0587 148.913 44.0612C149.192 44.0612 149.457 43.9494 149.655 43.7537C149.851 43.5579 149.96 43.291 149.96 43.0139C149.96 42.1393 149.96 40.9013 149.96 40.0268Z" fill="#FFFBF9"/>
      <path fill-rule="evenodd" clip-rule="evenodd" d="M204.503 40.0268C204.503 39.7472 204.394 39.4827 204.195 39.2844C203.999 39.0887 203.732 38.9794 203.455 38.9794C198.666 38.9921 179.117 39.0404 179.117 39.0404C175.461 39.0404 171.706 37.2406 171.706 33.6027C171.706 32.3672 171.609 21.4739 171.609 21.0951C171.609 15.0345 175.166 12.5 179.223 12.5H209.069C217.91 12.5 217.893 20.2181 217.893 22.5493C217.893 24.0619 218.185 26.0956 212.371 26.0956C206.554 26.0956 205.967 25.2261 205.967 24.5372C205.967 23.8483 205.505 23.4644 205.027 23.4644C204.549 23.4644 190.475 23.4847 186.026 23.4847C185.698 23.4847 185.383 23.6144 185.149 23.8483C184.918 24.0796 184.786 24.3949 184.786 24.7253C184.786 25.3711 184.786 26.6473 184.786 27.293C184.786 27.6209 184.918 27.9362 185.149 28.17C185.383 28.4039 185.698 28.5336 186.026 28.5336C191.339 28.5336 211.89 28.5336 211.89 28.5336C215.546 28.5336 217.893 30.3309 217.893 33.9713V50.4142C217.893 53.6453 215.389 55.557 211.331 55.557H179.861C173.941 55.557 171.706 52.092 171.706 47.7627V44.0536C171.706 43.2604 172.39 41.4987 178.206 41.4987C184.02 41.4987 184.295 42.2868 184.615 42.9249C184.931 43.5579 185.424 44.0536 186.026 44.0536C186.631 44.0536 199.357 44.0587 203.455 44.0612C203.735 44.0612 203.999 43.9494 204.198 43.7537C204.393 43.5579 204.503 43.291 204.503 43.0139C204.503 42.1393 204.503 40.9013 204.503 40.0268Z" fill="#FFFBF9"/>
      <path fill-rule="evenodd" clip-rule="evenodd" d="M22.3366 60.4998C22.3963 60.4118 22.4025 60.2981 22.3527 60.2034C22.3029 60.11 22.2052 60.0518 22.0988 60.0518C19.8457 60.0518 11.0675 60.0518 5.27476 60.0518C3.87494 60.0518 2.53263 59.4956 1.54343 58.5049C0.554086 57.5142 -0.00121606 56.1716 1.99966e-06 54.7722C0.00595698 47.4814 0.0165138 34.7255 0.020168 30.2823C0.0209801 29.247 0.292474 28.2306 0.80758 27.3319C2.66553 24.0945 7.3536 15.924 9.79487 11.6689C10.742 10.0178 12.4996 9 14.4027 9H68.938C70.0857 9 71.1428 9.62395 71.6991 10.6268C72.2552 11.6311 72.2227 12.8572 71.6141 13.8303C69.5899 17.0663 67.0634 21.1062 65.7494 23.2067C65.5707 23.4923 65.5611 23.8523 65.7245 24.1473C65.8877 24.4424 66.1982 24.6251 66.535 24.6251C69.448 24.6251 75.5484 24.6251 79.8223 24.6251C82.3898 24.6251 84.471 26.7066 84.471 29.274V52.7691C84.471 55.3947 83.8057 57.9784 82.5371 60.2765C80.939 63.1728 78.3456 67.2763 76.7102 70.2403C75.4301 72.56 72.9904 74 70.3411 74H19.1583C17.9853 74 16.9082 73.3517 16.3589 72.315C15.8095 71.2797 15.8777 70.0237 16.536 69.0533C18.7674 65.7632 21.4462 61.8126 22.3366 60.4998Z" fill="#E27152"/>
      <path fill-rule="evenodd" clip-rule="evenodd" d="M30.2249 58.0353C29.1545 58.0353 28.1511 58.5563 27.5344 59.4306C25.8334 61.8437 22.3568 66.7755 20.6071 69.2577C20.4026 69.5487 20.3769 69.9276 20.5402 70.243C20.7036 70.5583 21.0288 70.7559 21.3835 70.7559C29.2185 70.7559 59.6145 70.7559 69.1579 70.7559C70.9171 70.7559 72.542 69.8153 73.419 68.29C74.6679 66.1178 76.8133 62.9603 78.0993 60.7231C78.4186 60.1682 78.4177 59.4847 78.097 58.9312C77.7763 58.3763 77.1844 58.0353 76.5441 58.0353C66.8957 58.0353 37.6132 58.0353 30.2249 58.0353Z" fill="#FFFBF9"/>
      <path fill-rule="evenodd" clip-rule="evenodd" d="M16.7542 44.3536C14.9549 44.359 13.2576 45.19 12.1493 46.6084C10.5674 48.6318 8.23064 51.6214 6.4953 53.841C6.06303 54.3932 5.98399 55.1443 6.29162 55.775C6.59911 56.407 7.23968 56.8063 7.94155 56.8063H24.4549C25.0379 55.576 26.278 54.7911 27.6401 54.7911C34.1708 54.7911 53.1912 54.7911 59.5546 54.7911C60.8602 54.7911 62.0719 54.1117 62.7536 52.9978C63.9647 51.0205 65.8999 47.8603 67.0955 45.9073C67.3097 45.5568 67.3179 45.1183 67.1166 44.761C66.9154 44.4023 66.5363 44.1817 66.1258 44.1831C57.8228 44.2115 26.4211 44.3198 16.7542 44.3536Z" fill="#FFFBF9"/>
      <path fill-rule="evenodd" clip-rule="evenodd" d="M67.4768 52.1533C67.1457 52.6852 67.129 53.3552 67.4334 53.9033C67.7378 54.4514 68.3153 54.7911 68.942 54.7911H78.2027C78.9173 54.7911 79.6027 54.5069 80.1079 54.0021C80.6133 53.4959 80.8971 52.8111 80.8971 52.0965C80.8971 46.9197 80.8971 35.6431 80.8971 30.5097C80.8971 29.0507 79.7149 27.8692 78.2565 27.8692C69.8008 27.8692 43.4566 27.8692 35.056 27.8692C33.4357 27.8692 31.9278 28.6975 31.0586 30.0644C29.526 32.4762 27.742 36.3198 26.2329 38.6937C25.9648 39.1146 25.9477 39.6492 26.1884 40.0877C26.4289 40.5262 26.889 40.7983 27.3888 40.7983H68.4092C69.6466 40.7983 70.7869 41.4696 71.3879 42.5509C71.9888 43.6323 71.9561 44.9546 71.3022 46.0062C69.9995 48.0999 68.554 50.4223 67.4768 52.1533Z" fill="#FFFBF9"/>
      <path fill-rule="evenodd" clip-rule="evenodd" d="M59.9333 24.625C60.288 24.625 60.6187 24.4451 60.8126 24.1487C61.8367 22.5801 65.143 17.517 66.9494 14.7506C67.1889 14.3838 67.2083 13.9142 66.9997 13.5298C66.791 13.1441 66.3881 12.9045 65.9499 12.9045C57.9893 12.9045 30.6062 12.9045 19.215 12.9045C17.88 12.9045 16.5998 13.4337 15.6558 14.3784C14.712 15.3217 14.1816 16.602 14.1816 17.9379C14.1816 22.9482 14.1816 30.6112 14.1816 35.7379C14.1816 37.14 14.7557 38.4798 15.7702 39.4475C16.7847 40.4152 18.151 40.9241 19.5512 40.8578C19.5515 40.8578 20.2109 40.8578 20.2109 40.8578C20.2282 40.7157 25.538 31.549 28.4687 27.0544C29.4576 25.5386 31.1453 24.625 32.9555 24.625C39.7998 24.625 56.6284 24.625 59.9333 24.625Z" fill="#FFFBF9"/>
    </symbol>

    <symbol id="meilisearch" viewBox="0 0 162 25"> 
      <path d="M59.2069 14.2074C59.2069 12.5978 59.9786 11.6497 61.4559 11.6497C62.845 11.6497 63.308 12.6419 63.308 13.9208V20.7781H66.439V13.568C66.439 10.878 65.0279 8.9597 62.2497 8.9597C60.596 8.9597 59.4274 9.46683 58.4131 10.5913C57.7516 9.57708 56.6271 8.9597 55.0616 8.9597C53.4079 8.9597 52.2614 9.64323 51.7322 10.6354V9.22429H48.8438V20.7781H51.9747V14.1413C51.9747 12.5978 52.7685 11.6497 54.2238 11.6497C55.6129 11.6497 56.0759 12.6419 56.0759 13.9208V20.7781H59.2069V14.2074Z" fill="currentColor"/>
      <path d="M79.2905 15.9052C79.2905 15.9052 79.3346 15.4863 79.3346 14.9791C79.3346 11.5615 77.0194 8.9597 73.6018 8.9597C70.1841 8.9597 67.8028 11.5615 67.8028 14.9791C67.8028 18.5291 70.2062 21.0427 73.6238 21.0427C76.2918 21.0427 78.4085 19.4331 79.092 17.0959H75.939C75.5641 17.9337 74.6601 18.3527 73.712 18.3527C72.1465 18.3527 71.1322 17.4928 70.9117 15.9052H79.2905ZM73.5797 11.4733C75.035 11.4733 75.9831 12.3553 76.2036 13.6562H70.9558C71.2204 12.3332 72.1465 11.4733 73.5797 11.4733Z" fill="currentColor"/>
      <path d="M79.7962 11.9143H81.1853V20.7781H84.3163V9.22429H79.7962V11.9143ZM82.7508 7.72495C83.8533 7.72495 84.647 6.95322 84.647 5.85076C84.647 4.7483 83.8533 3.95453 82.7508 3.95453C81.6483 3.95453 80.8546 4.7483 80.8546 5.85076C80.8546 6.95322 81.6483 7.72495 82.7508 7.72495Z" fill="currentColor"/>
      <path d="M90.7996 18.0881C90.7114 18.0881 90.5791 18.1101 90.3807 18.1101C89.6751 18.1101 89.5869 17.7794 89.5869 17.2943V4.24117H86.4559V17.5148C86.4559 19.8079 87.3379 20.8222 89.8295 20.8222C90.2484 20.8222 90.6453 20.7781 90.7996 20.756V18.0881Z" fill="currentColor"/>
      <path d="M91.1559 11.9143H92.545V20.7781H95.676V9.22429H91.1559V11.9143ZM94.1105 7.72495C95.2129 7.72495 96.0067 6.95322 96.0067 5.85076C96.0067 4.7483 95.2129 3.95453 94.1105 3.95453C93.008 3.95453 92.2142 4.7483 92.2142 5.85076C92.2142 6.95322 93.008 7.72495 94.1105 7.72495Z" fill="currentColor"/>
      <path d="M101.96 20.899C105.003 20.899 106.436 19.2894 106.436 17.5916C106.436 12.8731 99.4908 15.4969 99.4908 12.388C99.4908 11.3737 100.351 10.5138 102.093 10.5138C103.879 10.5138 104.716 11.484 104.849 12.6967H106.414C106.282 11.1753 105.246 9.14675 102.137 9.14675C99.4688 9.14675 97.9694 10.7343 97.9694 12.4541C97.9694 17.0624 104.915 14.4165 104.915 17.6357C104.915 18.7602 103.857 19.5319 101.96 19.5319C100.02 19.5319 99.0498 18.5618 98.9396 17.1286H97.3521C97.4843 19.0909 98.7191 20.899 101.96 20.899Z" fill="currentColor"/>
      <path d="M118.87 15.4749C118.87 15.4749 118.892 15.1221 118.892 14.8795C118.892 11.7045 116.842 9.14675 113.49 9.14675C110.116 9.14675 107.978 11.9029 107.978 15.0118C107.978 18.1649 109.962 20.899 113.512 20.899C116.18 20.899 118.032 19.2673 118.694 17.1286H117.062C116.577 18.4956 115.254 19.4878 113.534 19.4878C111.175 19.4878 109.698 17.7459 109.543 15.4749H118.87ZM113.49 10.5579C115.695 10.5579 117.128 12.0352 117.327 14.196H109.587C109.852 12.1234 111.307 10.5579 113.49 10.5579Z" fill="currentColor"/>
      <path d="M128.611 15.2985V16.3568C128.611 18.2751 127.222 19.5981 124.554 19.5981C122.9 19.5981 121.996 18.9146 121.996 17.4373C121.996 16.6876 122.349 16.1143 122.9 15.8056C123.473 15.4969 124.245 15.2985 128.611 15.2985ZM124.377 20.899C126.318 20.899 127.883 20.2816 128.677 19.0027V20.6344H130.176V13.292C130.176 10.8004 128.743 9.14675 125.502 9.14675C122.393 9.14675 121.026 10.7122 120.739 12.7187H122.261C122.569 11.1312 123.782 10.4917 125.436 10.4917C127.552 10.4917 128.611 11.3737 128.611 13.2699V13.9976C125.061 13.9976 123.584 14.0637 122.481 14.5047C121.202 15.0118 120.453 16.1364 120.453 17.4814C120.453 19.4437 121.709 20.899 124.377 20.899Z" fill="currentColor"/>
      <path d="M138.735 9.32314C138.735 9.32314 138.471 9.30109 138.36 9.30109C136.288 9.30109 135.185 10.3815 134.766 11.1532V9.41134H133.267V20.6344H134.832V14.2622C134.832 11.9249 136.266 10.7784 138.184 10.7784C138.471 10.7784 138.735 10.8004 138.735 10.8004V9.32314Z" fill="currentColor"/>
      <path d="M139.003 15.0339C139.003 18.0987 141.119 20.899 144.537 20.899C147.58 20.899 149.344 18.8705 149.785 16.6435H148.197C147.734 18.3854 146.455 19.4878 144.537 19.4878C142.178 19.4878 140.59 17.6136 140.59 15.0339C140.59 12.4321 142.178 10.5579 144.537 10.5579C146.455 10.5579 147.734 11.6604 148.197 13.4022H149.785C149.344 11.1753 147.58 9.14675 144.537 9.14675C141.119 9.14675 139.003 11.947 139.003 15.0339Z" fill="currentColor"/>
      <path d="M153.47 4.09747H151.905V20.6344H153.47V13.9976C153.47 11.7045 154.947 10.5138 156.844 10.5138C158.85 10.5138 159.798 11.7486 159.798 13.7771V20.6344H161.364V13.4684C161.364 10.9768 159.886 9.14675 157.108 9.14675C155.014 9.14675 153.867 10.2933 153.47 10.9768V4.09747Z" fill="currentColor"/>
      <path d="M0 24.4968L7.60256 5.04523C8.67392 2.30411 11.3161 0.5 14.2591 0.5H18.8426L11.24 19.9516C10.1687 22.6927 7.52653 24.4968 4.58348 24.4968H0Z" fill="currentColor"/>
      <path d="M11.1533 24.4969L18.7558 5.04529C19.8272 2.30417 22.4693 0.500057 25.4124 0.500057H29.9959L22.3933 19.9517C21.3219 22.6928 18.6798 24.4969 15.7368 24.4969H11.1533Z" fill="currentColor"/>
      <path d="M22.3072 24.4969L29.9098 5.04529C30.9811 2.30417 33.6233 0.500057 36.5663 0.500057H41.1498L33.5472 19.9517C32.4759 22.6928 29.8337 24.4969 26.8907 24.4969H22.3072Z" fill="currentColor"/>
      <defs>
      <linearGradient id="paint0_linear_2735_3490" x1="41.1499" y1="-1.33294" x2="-1.49296e-06" y2="21.9145" gradientUnits="userSpaceOnUse">
        <stop stop-color="#FF5CAA"/>
        <stop offset="1" stop-color="#FF4E62"/>
      </linearGradient>
      <linearGradient id="paint1_linear_2735_3490" x1="41.1499" y1="-1.33294" x2="-1.49296e-06" y2="21.9145" gradientUnits="userSpaceOnUse">
        <stop stop-color="#FF5CAA"/>
        <stop offset="1" stop-color="#FF4E62"/>
      </linearGradient>
      <linearGradient id="paint2_linear_2735_3490" x1="41.1499" y1="-1.33294" x2="-1.49296e-06" y2="21.9145" gradientUnits="userSpaceOnUse">
        <stop stop-color="#FF5CAA"/>
        <stop offset="1" stop-color="#FF4E62"/>
      </linearGradient>
      </defs> 
    </symbol>

    <symbol id="next" xmlns="http://www.w3.org/2000/svg" viewBox="0 0 512 308.883">
      <path d="m120.81 80.561h96.568v7.676h-87.716v57.767h82.486v7.675h-82.486v63.423h88.722v7.675h-97.574zm105.22 0h10.26l45.467 63.423 46.473-63.424 63.211-80.56-103.85 150.65 53.515 74.127h-10.663l-48.686-67.462-48.888 67.462h-10.461l53.917-74.128zm118.898 7.676v-7.677h110.048v7.676h-50.699v136.54h-8.852v-136.539zm-344.928-7.677h11.065l152.58 228.323-63.053-84.107-91.338-133.308-.402 133.31h-8.852zm454.084 134.224c-1.809 0-3.165-1.4-3.165-3.212 0-1.81 1.356-3.212 3.165-3.212 1.83 0 3.165 1.401 3.165 3.212s-1.335 3.212-3.165 3.212zm8.698-8.45h4.737c.064 2.565 1.937 4.29 4.693 4.29 3.079 0 4.823-1.854 4.823-5.325v-21.99h4.823v22.011c0 6.252-3.617 9.853-9.603 9.853-5.62 0-9.473-3.493-9.473-8.84zm25.384-.28h4.78c.409 2.953 3.294 4.828 7.45 4.828 3.875 0 6.717-2.005 6.717-4.764 0-2.371-1.809-3.794-5.921-4.764l-4.005-.97c-5.62-1.316-8.181-4.032-8.181-8.602 0-5.54 4.521-9.227 11.303-9.227 6.308 0 10.916 3.686 11.196 8.925h-4.694c-.452-2.867-2.95-4.657-6.567-4.657-3.81 0-6.35 1.833-6.35 4.635 0 2.22 1.635 3.493 5.683 4.441l3.423.841c6.373 1.488 9 4.075 9 8.753 0 5.95-4.607 9.68-11.97 9.68-6.89 0-11.52-3.558-11.864-9.12z" fill="currentColor"/>
    </symbol>

    <symbol id="postgresql" viewBox="0 0 120 60">
       
       <path d="M13.56 43.927H8.34v-5.25h5.504c2.014 0 3.022.9 3.022 2.666 0 1.723-1.102 2.585-3.305 2.585m3.752-5.312c-.715-.64-1.716-.96-3.003-.96l-7.476.04v12.56H8.34l-.014-5.347h5.563c1.395 0 2.493-.32 3.294-.96s1.202-1.53 1.202-2.666-.358-2.026-1.073-2.666zm9.747 9.004a2.56 2.56 0 0 1-.715 1.068c-.675.66-1.704.987-3.1.987-1.25 0-2.2-.32-2.88-.96s-1.005-1.497-1.005-2.57c0-.56.088-1.055.263-1.488a2.92 2.92 0 0 1 .762-1.096c.692-.63 1.646-.947 2.86-.947 2.7 0 4.033 1.177 4.033 3.53 0 .56-.077 1.05-.23 1.474m.273-4.633c-.918-.837-2.277-1.256-4.077-1.256-1.7 0-3.015.428-3.942 1.283-.837.774-1.255 1.818-1.255 3.132 0 1.305.432 2.358 1.296 3.16.477.432 1.033.745 1.667.938s1.38.3 2.234.3c1.8 0 3.154-.414 4.1-1.242.837-.756 1.255-1.804 1.255-3.145 0-1.35-.423-2.403-1.27-3.16zm11.4 4.997c0 1.7-1.515 2.536-4.544 2.536-.926 0-1.706-.06-2.34-.176s-1.148-.313-1.544-.584a2.31 2.31 0 0 1-.728-.8c-.18-.323-.297-.75-.35-1.255l1.4-.013c0 .665.247 1.155.74 1.47.53.378 1.467.567 2.813.567 2.117 0 3.176-.53 3.176-1.592 0-.62-.355-1.047-1.065-1.28-.144-.045-1-.164-2.57-.357s-2.546-.367-2.933-.52c-.836-.333-1.254-.93-1.254-1.794a2.02 2.02 0 0 1 1.12-1.889c.37-.17.83-.303 1.384-.398s1.195-.142 1.924-.142c2.916 0 4.374.915 4.374 2.745h-1.34c0-1.286-1.025-1.93-3.075-1.93-1.043 0-1.82.13-2.333.4s-.77.66-.77 1.2c0 .504.346.868 1.038 1.093.405.117 1.335.252 2.792.405 1.304.117 2.198.283 2.684.5.926.36 1.4.97 1.4 1.834zm5.536 2.3l-.573.08-.358.027c-.918 0-1.58-.133-1.985-.4s-.6-.732-.6-1.4v-5.73h-1.67v-.843h1.66l.013-2.708h1.285v2.708h2.238v.857l-2.238-.014v5.577c0 .415.1.702.33.86s.614.237 1.18.237c.08.01.17.006.27-.01s.247-.05.445-.102l.014.86zm8.887-1.912a3.81 3.81 0 0 1-1.2.661c-.45.153-.966.23-1.55.23-2.688 0-4.03-1.1-4.03-3.33 0-1.033.344-1.842 1.03-2.426s1.656-.876 2.905-.876c1.258 0 2.213.294 2.865.883s.978 1.377.978 2.366c0 1.078-.333 1.9-.998 2.494m2.283-6.36h-1.285l-.014 1.417c-.566-.575-.97-.94-1.214-1.092-.72-.395-1.65-.593-2.792-.593-1.673 0-2.95.382-3.83 1.146-.836.7-1.254 1.717-1.254 3.047 0 .656.106 1.243.317 1.76s.52.955.925 1.314c.883.737 2.13 1.106 3.742 1.106 1.936 0 3.3-.53 4.12-1.6v1.467c0 .935-.295 1.66-.884 2.172s-1.558.77-2.907.77c-1.268 0-2.172-.175-2.7-.524-.405-.268-.684-.734-.836-1.397H45.5c.144.925.535 1.595 1.174 2.008.738.476 1.984.714 3.738.714 3.356 0 5.034-1.247 5.034-3.742v-7.983zm6.95.835a6.72 6.72 0 0 0-1.078-.094c-2.112 0-3.168 1.158-3.168 3.475v4.028h-1.27l-.014-8.243 1.285.013v1.47h.067c.216-.58.557-1.02 1.025-1.318.512-.3 1.276-.435 2.292-.435h.863v1.103zm1.196 2.766c.162-.937.526-1.662 1.092-2.176.37-.297.787-.52 1.254-.67s.994-.223 1.578-.223c1.142 0 2.074.313 2.798.94s1.095 1.336 1.095 2.13h-7.807m7.933-2.543a4.12 4.12 0 0 0-1.674-1.001c-.666-.217-1.444-.325-2.335-.325-1.665 0-2.956.387-3.874 1.16s-1.377 1.827-1.377 3.16.44 2.4 1.322 3.172c.953.864 2.298 1.296 4.035 1.296.692 0 1.333-.08 1.922-.235s1.104-.38 1.545-.665c.774-.556 1.263-1.24 1.47-2.056h-1.4c-.477 1.4-1.663 2.114-3.56 2.114-1.34 0-2.37-.344-3.1-1.034-.62-.6-.93-1.356-.93-2.296h9.16c0-1.398-.4-2.495-1.228-3.3z" fill="currentColor"/>
       <path d="M86.32 46.888c0 2.447-1.974 3.67-5.92 3.67-2.365 0-4.092-.42-5.18-1.265-.9-.693-1.335-1.75-1.335-3.17h1.6c0 2.285 1.64 3.427 4.925 3.427 1.574 0 2.713-.234 3.414-.7.594-.413.9-1.06.9-1.94 0-.872-.405-1.483-1.215-1.834-.46-.2-1.58-.427-3.36-.715-2.24-.342-3.693-.683-4.358-1.024-.962-.503-1.444-1.357-1.444-2.562 0-1.123.4-1.96 1.228-2.508.88-.602 2.393-.903 4.534-.903 3.87 0 5.803 1.285 5.803 3.855H84.3c0-1.925-1.437-2.887-4.3-2.887-1.44 0-2.494.194-3.16.58-.63.414-.945 1.02-.945 1.822 0 .837.405 1.426 1.215 1.768.43.198 1.7.472 3.806.824 1.98.297 3.315.643 4 1.04.945.486 1.417 1.327 1.417 2.524zm12.908 1.25a6.2 6.2 0 0 1-2.012 1.071c-.748.238-1.585.357-2.512.357-1.9 0-3.42-.5-4.586-1.53s-1.75-2.377-1.75-4.074c0-1.77.578-3.147 1.735-4.135s2.7-1.482 4.6-1.482c1.936 0 3.458.516 4.565 1.55.585.503 1.017 1.1 1.297 1.765s.42 1.44.42 2.303c0 1.76-.586 3.152-1.756 4.176m.845.833c.828-.584 1.44-1.3 1.837-2.123s.595-1.8.595-2.878c0-1.95-.648-3.514-1.944-4.7-.693-.647-1.53-1.128-2.5-1.442s-2.1-.472-3.36-.472c-2.447 0-4.368.593-5.763 1.78s-2.092 2.795-2.092 4.826c0 1.977.703 3.572 2.1 4.785s3.33 1.82 5.768 1.82c.953 0 1.785-.065 2.496-.193s1.313-.327 1.808-.594l2.348 1.627.98-.9-2.273-1.542zm14.33 1.283h-10.858V37.68l1.493-.027v11.55h9.38l-.014 1.05z" fill="#367faf"/><path d="M67.415 27.556c.197-1.64.138-1.88 1.36-1.614l.3.027c.94.043 2.167-.15 2.89-.486 1.553-.72 2.474-1.924.943-1.608-3.494.72-3.734-.462-3.734-.462 3.69-5.474 5.23-12.423 3.9-14.123-3.63-4.64-9.916-2.445-10.02-2.388l-.033.006c-.69-.143-1.463-.23-2.33-.243-1.58-.026-2.78.414-3.7 1.105 0 0-11.212-4.62-10.7 5.81.11 2.218 3.18 16.786 6.84 12.386 1.338-1.61 2.63-2.97 2.63-2.97.642.427 1.4.644 2.217.566l.062-.053a2.43 2.43 0 0 0 .025.626c-.943 1.053-.666 1.24-2.55 1.627-1.907.393-.787 1.093-.055 1.276.887.222 2.94.536 4.325-1.405l-.055.222c.37.296.345 2.127.397 3.435s.14 2.53.407 3.25.58 2.574 3.06 2.043c2.07-.444 3.654-1.082 3.798-7.023" fill="#231f20" stroke="#231f20" stroke-width="2.598"/><path d="M72.916 23.875c-3.494.72-3.734-.462-3.734-.462 3.69-5.474 5.23-12.423 3.9-14.124-3.63-4.64-9.916-2.445-10.02-2.388l-.034.006c-.69-.143-1.463-.23-2.33-.243-1.58-.026-2.78.414-3.7 1.105 0 0-11.212-4.62-10.7 5.81.11 2.22 3.18 16.786 6.84 12.386 1.338-1.61 2.63-2.97 2.63-2.97.642.427 1.41.644 2.216.566l.063-.053c-.02.2-.01.395.025.626-.943 1.053-.666 1.24-2.55 1.627-1.907.393-.787 1.093-.055 1.276.887.222 2.94.536 4.325-1.405l-.055.222c.37.296.63 1.925.585 3.4s-.072 2.49.22 3.282.58 2.574 3.06 2.043c2.07-.444 3.144-1.594 3.293-3.512.106-1.364.346-1.162.36-2.38l.192-.577c.222-1.85.035-2.445 1.31-2.167l.3.027c.94.043 2.168-.15 2.89-.486 1.553-.72 2.474-1.924.943-1.608z" fill="#417ba2"/>
       <g fill="none" class="C B">
        <g class="D">
          <path d="M59.96 24.935c-.096 3.44.024 6.903.36 7.745s1.057 2.48 3.536 1.948c2.07-.444 2.824-1.303 3.15-3.2l.765-6.063M57 7.692s-11.22-4.586-10.7 5.842c.1 2.22 3.18 16.787 6.84 12.387 1.338-1.6 2.547-2.87 2.547-2.87M63.05 6.855c-.4.122 6.24-2.423 10.008 2.4 1.33 1.7-.2 8.65-3.9 14.124" class="E"/>
          <path d="M69.157 23.37s.24 1.183 3.735.462c1.53-.316.6.887-.943 1.608-1.274.59-4.13.743-4.178-.074-.12-2.11 1.504-1.468 1.386-1.996-.106-.476-.832-.943-1.312-2.107-.42-1.017-5.75-8.812 1.48-7.654.265-.055-1.886-6.877-8.652-6.988s-6.542 8.32-6.542 8.32" stroke-linejoin="bevel"/>
        </g>
        <g class="E">
          <path d="M58.066 24.09c-.943 1.053-.666 1.24-2.55 1.627-1.907.393-.787 1.093-.055 1.276.887.222 2.94.536 4.325-1.405.422-.59-.002-1.534-.582-1.775-.28-.116-.655-.26-1.136.277z"/>
          <path d="M58.004 24.072c-.095-.62.204-1.356.523-2.22.48-1.294 1.6-2.588.703-6.692-.66-3.058-5.098-.637-5.1-.222s.2 2.102-.074 4.067c-.36 2.564 1.63 4.733 3.923 4.51" class="D"/>
        </g>
      </g>
      <g fill="currentColor" class="C">
        <path d="M56.948 14.877c-.02.142.26.52.623.57s.675-.245.694-.386-.26-.298-.624-.35-.675.023-.694.165z" stroke-width=".289"/>
        <path d="M68.022 14.588c.02.142-.26.52-.623.57s-.675-.245-.695-.386.26-.298.624-.348.675.023.695.165z" stroke-width=".144"/>
      </g>
      <path d="M69.323 13.608c.06 1.11-.24 1.868-.277 3.05-.056 1.72.82 3.687-.5 5.657" fill="currentColor" class="B C D E"/>
    </symbol>

    <symbol id="tailwind" viewBox="0 0 512 63.478">
      <path d="M52.898 0C38.792 0 29.976 7.053 26.45 21.16c5.29-7.054 11.462-9.699 18.515-7.935 4.024 1.005 6.9 3.926 10.084 7.157 5.186 5.264 11.189 11.357 24.3 11.357 14.106 0 22.922-7.053 26.449-21.16-5.29 7.054-11.462 9.699-18.515 7.935-4.024-1.005-6.9-3.926-10.084-7.157C72.012 6.093 66.01 0 52.898 0zM26.45 31.739c-14.106 0-22.922 7.053-26.449 21.16 5.29-7.054 11.461-9.699 18.514-7.935 4.025 1.007 6.9 3.926 10.084 7.157 5.186 5.264 11.19 11.357 24.3 11.357 14.107 0 22.923-7.053 26.45-21.16-5.29 7.054-11.462 9.699-18.515 7.935-4.024-1.005-6.9-3.926-10.084-7.156-5.186-5.265-11.189-11.358-24.3-11.358z" fill="#38bdf8"/>
      <path d="M158.687 26.747h-9.231v17.868c0 4.765 3.126 4.69 9.231 4.392v7.222c-12.358 1.489-17.272-1.936-17.272-11.614V26.747h-6.85v-7.743h6.85v-10l8.04-2.382v12.382h9.232zm35.192-7.743h8.04V56.23h-8.04v-5.36c-2.83 3.945-7.222 6.328-13.03 6.328-10.124 0-18.537-8.562-18.537-19.58 0-11.093 8.413-19.58 18.538-19.58 5.807 0 10.2 2.382 13.029 6.253zM182.115 49.53c6.7 0 11.764-4.989 11.764-11.912s-5.063-11.912-11.764-11.912-11.763 4.988-11.763 11.912 5.063 11.912 11.763 11.912zm33.205-36.11c-2.83 0-5.137-2.383-5.137-5.138a5.147 5.147 0 0 1 5.137-5.137 5.147 5.147 0 0 1 5.137 5.137c0 2.755-2.308 5.138-5.137 5.138zm-4.02 42.808V19.004h8.04V56.23zm17.346 0V1.881h8.041v54.348zm60.23-37.225h8.487L285.675 56.23h-7.892l-7.743-25.09-7.817 25.09h-7.891l-11.689-37.225h8.487l7.222 25.685 7.817-25.685h7.668l7.743 25.685zm18.464-5.583c-2.83 0-5.137-2.383-5.137-5.138a5.147 5.147 0 0 1 5.137-5.137 5.147 5.147 0 0 1 5.137 5.137c0 2.755-2.308 5.138-5.137 5.138zm-4.02 42.808V19.004h8.04V56.23zm36.926-38.193c8.339 0 14.295 5.659 14.295 15.337v22.856h-8.04V34.192c0-5.658-3.277-8.636-8.34-8.636-5.285 0-9.454 3.127-9.454 10.72V56.23h-8.04V19.004h8.04v4.765c2.457-3.871 6.477-5.733 11.54-5.733zM392.66 4.114h8.04V56.23h-8.04v-5.36c-2.83 3.945-7.222 6.328-13.029 6.328-10.125 0-18.538-8.562-18.538-19.58 0-11.093 8.413-19.58 18.538-19.58 5.807 0 10.2 2.382 13.029 6.253zM380.896 49.53c6.7 0 11.763-4.989 11.763-11.912s-5.063-11.912-11.763-11.912-11.763 4.988-11.763 11.912 5.062 11.912 11.763 11.912zm46.754 7.668c-11.242 0-19.654-8.562-19.654-19.58 0-11.093 8.412-19.58 19.654-19.58 7.296 0 13.625 3.796 16.603 9.603l-6.924 4.02c-1.638-3.498-5.286-5.732-9.753-5.732-6.552 0-11.54 4.988-11.54 11.689s4.988 11.688 11.54 11.688c4.467 0 8.115-2.308 9.902-5.732l6.923 3.945c-3.126 5.882-9.455 9.679-16.75 9.679zm30.003-27.919c0 6.775 20.027 2.68 20.027 16.454 0 7.445-6.477 11.465-14.517 11.465-7.445 0-12.806-3.35-15.188-8.71l6.924-4.021c1.191 3.35 4.169 5.36 8.264 5.36 3.573 0 6.328-1.19 6.328-4.169 0-6.626-20.027-2.903-20.027-16.23 0-6.998 6.03-11.39 13.624-11.39 6.105 0 11.168 2.828 13.773 7.742l-6.774 3.797c-1.34-2.903-3.946-4.244-6.999-4.244-2.903 0-5.435 1.266-5.435 3.946zm34.322 0c0 6.775 20.027 2.68 20.027 16.454 0 7.445-6.477 11.465-14.518 11.465-7.445 0-12.805-3.35-15.188-8.71l6.924-4.021c1.191 3.35 4.17 5.36 8.264 5.36 3.574 0 6.328-1.19 6.328-4.169 0-6.626-20.027-2.903-20.027-16.23 0-6.998 6.03-11.39 13.625-11.39 6.104 0 11.167 2.828 13.773 7.742l-6.775 3.797c-1.34-2.903-3.946-4.244-6.998-4.244-2.904 0-5.435 1.266-5.435 3.946z" fill="currentColor"/>
    </symbol>

    <symbol id="shadcnui" viewBox="0 0 256 256">
      <rect width="256" height="256" fill="none"></rect><line x1="208" y1="128" x2="128" y2="208" fill="none" stroke="currentColor" stroke-linecap="round" stroke-linejoin="round" stroke-width="16"></line><line x1="192" y1="40" x2="40" y2="192" fill="none" stroke="currentColor" stroke-linecap="round" stroke-linejoin="round" stroke-width="16"></line>
    </symbol>

    <symbol id="drizzle" viewBox="0 0 202 72">
      <rect width="5.25365" height="22.2834" rx="2.62683" transform="matrix(0.873028 0.48767 -0.497212 0.867629 16.0791 30.3292)" fill="currentColor" data-astro-cid-42ewbp4n=""></rect> 
      <rect width="5.25365" height="22.2834" rx="2.62683" transform="matrix(0.873028 0.48767 -0.497212 0.867629 34.3301 19)" fill="currentColor" data-astro-cid-42ewbp4n=""></rect> 
      <rect width="5.25365" height="22.2834" rx="2.62683" transform="matrix(0.873028 0.48767 -0.497212 0.867629 62.4131 19.0005)" fill="currentColor" data-astro-cid-42ewbp4n=""></rect> 
      <rect width="5.25365" height="22.2834" rx="2.62683" transform="matrix(0.873028 0.48767 -0.497212 0.867629 44.1562 30.3292)" fill="currentColor" data-astro-cid-42ewbp4n=""></rect> 
      <path d="M85.96 49.44C84.2533 49.44 82.7467 49.0267 81.44 48.2C80.16 47.3733 79.16 46.1867 78.44 44.64C77.72 43.0933 77.36 41.2667 77.36 39.16C77.36 37.0533 77.72 35.24 78.44 33.72C79.16 32.2 80.16 31.0267 81.44 30.2C82.7467 29.3733 84.2533 28.96 85.96 28.96C87.5067 28.96 88.8667 29.3333 90.04 30.08C91.24 30.8267 92.0533 31.8 92.48 33H92.04V23.52C92.04 22.5067 92.2933 21.7467 92.8 21.24C93.3067 20.7067 94.0533 20.44 95.04 20.44C96 20.44 96.7467 20.7067 97.28 21.24C97.8133 21.7467 98.08 22.5067 98.08 23.52V46.28C98.08 47.2667 97.8133 48.0267 97.28 48.56C96.7733 49.0933 96.04 49.36 95.08 49.36C94.12 49.36 93.3733 49.0933 92.84 48.56C92.3333 48.0267 92.08 47.2667 92.08 46.28V43.56L92.52 45.12C92.1467 46.4267 91.3467 47.48 90.12 48.28C88.92 49.0533 87.5333 49.44 85.96 49.44ZM87.76 44.92C88.64 44.92 89.4 44.7067 90.04 44.28C90.68 43.8533 91.1867 43.2267 91.56 42.4C91.9333 41.5467 92.12 40.4667 92.12 39.16C92.12 37.2133 91.72 35.7867 90.92 34.88C90.12 33.9467 89.0667 33.48 87.76 33.48C86.9067 33.48 86.1467 33.68 85.48 34.08C84.84 34.48 84.3333 35.1067 83.96 35.96C83.6133 36.7867 83.44 37.8533 83.44 39.16C83.44 41.1067 83.84 42.56 84.64 43.52C85.44 44.4533 86.48 44.92 87.76 44.92ZM105.854 49.36C104.841 49.36 104.067 49.0933 103.534 48.56C103.001 48.0267 102.734 47.2667 102.734 46.28V32.08C102.734 31.0933 102.987 30.3467 103.494 29.84C104.027 29.3067 104.761 29.04 105.694 29.04C106.654 29.04 107.387 29.3067 107.894 29.84C108.401 30.3467 108.654 31.0933 108.654 32.08V34.16H108.254C108.574 32.56 109.281 31.32 110.374 30.44C111.467 29.56 112.881 29.0667 114.614 28.96C115.281 28.9067 115.787 29.08 116.134 29.48C116.507 29.8533 116.707 30.48 116.734 31.36C116.787 32.1867 116.614 32.84 116.214 33.32C115.841 33.8 115.201 34.0933 114.294 34.2L113.374 34.28C111.854 34.4133 110.721 34.8533 109.974 35.6C109.254 36.3467 108.894 37.4267 108.894 38.84V46.28C108.894 47.2667 108.627 48.0267 108.094 48.56C107.587 49.0933 106.841 49.36 105.854 49.36ZM122.258 49.32C121.272 49.32 120.512 49.04 119.978 48.48C119.472 47.8933 119.218 47.08 119.218 46.04V32.36C119.218 31.2933 119.472 30.48 119.978 29.92C120.512 29.3333 121.272 29.04 122.258 29.04C123.218 29.04 123.952 29.3333 124.458 29.92C124.992 30.48 125.258 31.2933 125.258 32.36V46.04C125.258 47.08 125.005 47.8933 124.498 48.48C123.992 49.04 123.245 49.32 122.258 49.32ZM122.258 25.76C121.138 25.76 120.272 25.5067 119.658 25C119.072 24.4667 118.778 23.72 118.778 22.76C118.778 21.7733 119.072 21.0267 119.658 20.52C120.272 19.9867 121.138 19.72 122.258 19.72C123.378 19.72 124.232 19.9867 124.818 20.52C125.405 21.0267 125.698 21.7733 125.698 22.76C125.698 23.72 125.405 24.4667 124.818 25C124.232 25.5067 123.378 25.76 122.258 25.76ZM131.602 49C131.015 49 130.522 48.8533 130.122 48.56C129.722 48.24 129.455 47.84 129.322 47.36C129.188 46.88 129.188 46.36 129.322 45.8C129.482 45.24 129.788 44.72 130.242 44.24L140.042 32.48V33.88H131.362C130.642 33.88 130.082 33.68 129.682 33.28C129.282 32.88 129.082 32.3333 129.082 31.64C129.082 30.8933 129.282 30.3333 129.682 29.96C130.082 29.56 130.642 29.36 131.362 29.36H142.922C143.642 29.36 144.215 29.52 144.642 29.84C145.068 30.16 145.348 30.56 145.482 31.04C145.642 31.4933 145.655 32 145.522 32.56C145.415 33.0933 145.135 33.6 144.682 34.08L134.642 46.08V44.52H143.922C145.442 44.52 146.202 45.2667 146.202 46.76C146.202 47.48 146.002 48.04 145.602 48.44C145.202 48.8133 144.642 49 143.922 49H131.602ZM150.82 49C150.234 49 149.74 48.8533 149.34 48.56C148.94 48.24 148.674 47.84 148.54 47.36C148.407 46.88 148.407 46.36 148.54 45.8C148.7 45.24 149.007 44.72 149.46 44.24L159.26 32.48V33.88H150.58C149.86 33.88 149.3 33.68 148.9 33.28C148.5 32.88 148.3 32.3333 148.3 31.64C148.3 30.8933 148.5 30.3333 148.9 29.96C149.3 29.56 149.86 29.36 150.58 29.36H162.14C162.86 29.36 163.434 29.52 163.86 29.84C164.287 30.16 164.567 30.56 164.7 31.04C164.86 31.4933 164.874 32 164.74 32.56C164.634 33.0933 164.354 33.6 163.9 34.08L153.86 46.08V44.52H163.14C164.66 44.52 165.42 45.2667 165.42 46.76C165.42 47.48 165.22 48.04 164.82 48.44C164.42 48.8133 163.86 49 163.14 49H150.82ZM175.439 49.44C173.066 49.44 171.292 48.7867 170.119 47.48C168.946 46.1467 168.359 44.1733 168.359 41.56V23.52C168.359 22.5067 168.612 21.7467 169.119 21.24C169.652 20.7067 170.412 20.44 171.399 20.44C172.359 20.44 173.092 20.7067 173.599 21.24C174.132 21.7467 174.399 22.5067 174.399 23.52V41.32C174.399 42.4133 174.626 43.2267 175.079 43.76C175.559 44.2667 176.186 44.52 176.959 44.52C177.172 44.52 177.372 44.5067 177.559 44.48C177.746 44.4533 177.946 44.44 178.159 44.44C178.586 44.3867 178.879 44.52 179.039 44.84C179.226 45.1333 179.319 45.7333 179.319 46.64C179.319 47.44 179.159 48.0533 178.839 48.48C178.519 48.88 178.026 49.1467 177.359 49.28C177.092 49.3067 176.786 49.3333 176.439 49.36C176.092 49.4133 175.759 49.44 175.439 49.44ZM191.684 49.44C189.364 49.44 187.364 49.0267 185.684 48.2C184.031 47.3467 182.751 46.16 181.844 44.64C180.964 43.0933 180.524 41.28 180.524 39.2C180.524 37.1733 180.951 35.4 181.804 33.88C182.657 32.3333 183.844 31.1333 185.364 30.28C186.911 29.4 188.657 28.96 190.604 28.96C192.017 28.96 193.297 29.2 194.444 29.68C195.591 30.1333 196.577 30.8 197.404 31.68C198.231 32.5333 198.857 33.5867 199.284 34.84C199.711 36.0667 199.924 37.44 199.924 38.96C199.924 39.4667 199.764 39.8533 199.444 40.12C199.124 40.36 198.657 40.48 198.044 40.48H185.484V37.36H195.564L194.924 37.92C194.924 36.8267 194.764 35.92 194.444 35.2C194.124 34.4533 193.657 33.8933 193.044 33.52C192.457 33.1467 191.724 32.96 190.844 32.96C189.857 32.96 189.017 33.1867 188.324 33.64C187.631 34.0933 187.097 34.7467 186.724 35.6C186.351 36.4533 186.164 37.48 186.164 38.68V39C186.164 41.0267 186.631 42.52 187.564 43.48C188.524 44.44 189.937 44.92 191.804 44.92C192.444 44.92 193.177 44.84 194.004 44.68C194.831 44.52 195.604 44.2667 196.324 43.92C196.937 43.6267 197.484 43.5333 197.964 43.64C198.444 43.72 198.817 43.9333 199.084 44.28C199.351 44.6267 199.497 45.0267 199.524 45.48C199.577 45.9333 199.484 46.3867 199.244 46.84C199.004 47.2667 198.604 47.6267 198.044 47.92C197.137 48.4267 196.111 48.8 194.964 49.04C193.844 49.3067 192.751 49.44 191.684 49.44Z" fill="currentColor" data-astro-cid-42ewbp4n=""></path> 
    </symbol>

    <symbol id="prisma" viewBox="0 0 90 28">
      <path fill-rule="evenodd" clip-rule="evenodd" d="M0.209637 19.0073C-0.0659575 18.5726 -0.070121 18.0189 0.198904 17.58L10.3282 1.05707C10.8916 0.138071 12.252 0.218426 12.7033 1.19735L21.9569 21.2706C22.3002 22.0154 21.905 22.8917 21.1194 23.1274L6.72474 27.4458C6.14558 27.6195 5.52155 27.3867 5.19781 26.876L0.209637 19.0073ZM11.4969 5.88824C11.5945 5.40217 12.2605 5.33208 12.4572 5.78717L18.8402 20.5571C18.9603 20.8352 18.8108 21.1559 18.5205 21.2425L8.57492 24.2114C8.20935 24.3205 7.85916 24.0011 7.93428 23.627L11.4969 5.88824ZM48.4948 21.1371H51.3226V10.772H48.4948V21.1371ZM48.3744 8.09277C48.3744 7.17221 48.8878 6.7116 49.9137 6.7116C50.9394 6.7116 51.4527 7.17221 51.4527 8.09277C51.4527 8.53176 51.3244 8.87321 51.068 9.11743C50.8114 9.36165 50.4267 9.48343 49.9137 9.48343C48.8878 9.48343 48.3744 9.01987 48.3744 8.09277ZM87.1709 16.335L86.0768 16.372C85.2548 16.3969 84.6429 16.5455 84.2412 16.8172C83.8392 17.0893 83.6386 17.5031 83.6386 18.0596C83.6386 18.8567 84.0959 19.2555 85.0106 19.2555C85.6656 19.2555 86.1897 19.0672 86.5819 18.6898C86.9744 18.313 87.1709 17.8124 87.1709 17.1878V16.335ZM88.0053 21.1375L87.4583 19.7282H87.384C86.908 20.3279 86.4182 20.7437 85.9144 20.9755C85.4109 21.2072 84.7542 21.3228 83.9446 21.3228C82.9491 21.3228 82.1661 21.0386 81.5941 20.47C81.0226 19.9017 80.7368 19.0918 80.7368 18.0409C80.7368 16.941 81.1214 16.1298 81.8907 15.6073C82.6607 15.0851 83.8209 14.7961 85.3723 14.7404L87.1709 14.6848V14.2304C87.1709 13.1799 86.633 12.6544 85.5576 12.6544C84.7293 12.6544 83.7558 12.9045 82.6371 13.4054L81.7009 11.4955C82.8938 10.8716 84.2167 10.559 85.6689 10.559C87.0596 10.559 88.1258 10.8621 88.8676 11.4677C89.6091 12.0734 89.98 12.9946 89.98 14.2304V21.1375H88.0053ZM72.4802 21.1375H69.6524V15.0834C69.6524 14.3357 69.527 13.775 69.2772 13.4008C69.0265 13.0269 68.6326 12.8397 68.0948 12.8397C67.3719 12.8397 66.8465 13.1058 66.5188 13.6371C66.1911 14.1688 66.0275 15.0435 66.0275 16.261V21.1375H63.1996V10.7723H65.3599L65.74 12.0982H65.8978C66.1757 11.6225 66.5778 11.25 67.1029 10.9812C67.6283 10.7121 68.231 10.5776 68.9109 10.5776C70.4623 10.5776 71.5128 11.0846 72.0631 12.0982H72.3132C72.5915 11.616 73.001 11.2421 73.5419 10.9763C74.0827 10.7105 74.6929 10.5776 75.3728 10.5776C76.5471 10.5776 77.4359 10.8791 78.0382 11.4817C78.6409 12.0844 78.9421 13.0502 78.9421 14.3786V21.1375H76.1051V15.0834C76.1051 14.3357 75.9798 13.775 75.73 13.4008C75.4792 13.0269 75.0854 12.8397 74.5475 12.8397C73.8555 12.8397 73.3379 13.0872 72.9945 13.5815C72.6517 14.0761 72.4802 14.8608 72.4802 15.9362V21.1375ZM60.17 20.4885C60.9088 19.9323 61.2781 19.1227 61.2781 18.0594C61.2781 17.5468 61.1887 17.1045 61.0093 16.7336C60.8299 16.3627 60.5517 16.0353 60.1749 15.7508C59.7981 15.4667 59.2046 15.1609 58.3946 14.8332C57.4862 14.4685 56.8976 14.1932 56.6285 14.0079C56.3601 13.8226 56.2252 13.6033 56.2252 13.3496C56.2252 12.8985 56.6426 12.6729 57.477 12.6729C57.9465 12.6729 58.4071 12.7443 58.8582 12.886C59.3093 13.0284 59.7948 13.2104 60.314 13.4331L61.1668 11.3936C59.9863 10.8498 58.7718 10.5778 57.5232 10.5778C56.2127 10.5778 55.2009 10.8295 54.4872 11.3333C53.7729 11.8371 53.416 12.5495 53.416 13.4701C53.416 14.0079 53.5012 14.461 53.6714 14.8286C53.841 15.1963 54.113 15.5223 54.4872 15.8065C54.8607 16.091 55.4467 16.4 56.2438 16.7336C56.8 16.9686 57.2453 17.1742 57.5788 17.3503C57.9128 17.5265 58.1475 17.6843 58.2837 17.8231C58.4195 17.9622 58.4876 18.1429 58.4876 18.3655C58.4876 18.9587 57.9743 19.2553 56.9483 19.2553C56.4478 19.2553 55.8684 19.1718 55.2103 19.0052C54.5517 18.8382 53.9601 18.6313 53.4347 18.3838V20.7203C53.8983 20.918 54.3959 21.0679 54.9275 21.1701C55.4591 21.2719 56.1014 21.3229 56.8557 21.3229C58.3266 21.3229 59.4314 21.0447 60.17 20.4885ZM46.9948 10.661C46.7414 10.6054 46.4232 10.5776 46.0398 10.5776C45.3969 10.5776 44.8021 10.7553 44.2554 11.1108C43.708 11.4664 43.2739 11.9345 42.9524 12.5152H42.8136L42.3962 10.7723H40.2546V21.1375H43.0824V15.8622C43.0824 15.0278 43.3341 14.3786 43.8376 13.9151C44.3418 13.4515 45.0446 13.2197 45.9472 13.2197C46.2749 13.2197 46.5528 13.2508 46.7817 13.3124L46.9948 10.661ZM31.9317 13.9614H32.8774C33.7613 13.9614 34.4223 13.7869 34.8613 13.4376C35.3003 13.0886 35.5196 12.5799 35.5196 11.9124C35.5196 11.239 35.3356 10.7414 34.968 10.4199C34.6 10.0984 34.0239 9.93766 33.2388 9.93766H31.9317V13.9614ZM38.4214 11.8106C38.4214 13.2694 37.9657 14.385 37.0537 15.1573C36.1423 15.9302 34.8459 16.3162 33.1649 16.3162H31.9317V21.1373H29.0577V7.58296H33.3872C35.0315 7.58296 36.2814 7.93684 37.1375 8.64461C37.9936 9.35238 38.4214 10.4079 38.4214 11.8106Z" fill="currentColor"/>
    </symbol>

    <symbol
      id="youtube"
      width="15"
      height="11"
      viewBox="0 0 15 11"
      fill="none"
      xmlns="http://www.w3.org/2000/svg"
    >
      <path
        d="M4.23047 7.01409V7.01437C4.23422 7.15313 4.23547 7.29269 4.25879 7.43058C4.28362 7.57647 4.3191 7.71873 4.38678 7.85115C4.47829 8.03036 4.60358 8.18176 4.76263 8.30534C4.87653 8.3941 5.00097 8.46458 5.13871 8.50903C5.33954 8.57377 5.54674 8.59857 5.75698 8.59979C5.88814 8.60062 6.01923 8.60389 6.15045 8.60334C7.10333 8.59934 8.05624 8.61022 9.00917 8.59747C9.13561 8.59577 9.25999 8.58034 9.3841 8.55766C9.62196 8.51416 9.83217 8.41265 10.012 8.25241C10.2216 8.06562 10.3631 7.83697 10.4269 7.56105C10.4687 7.38068 10.4791 7.19771 10.4809 7.01407V6.97744C10.4809 6.96324 10.4755 3.85737 10.475 3.81632C10.4736 3.70356 10.4653 3.59162 10.4441 3.48066C10.4184 3.34545 10.382 3.21369 10.3173 3.09137C10.2488 2.96211 10.1631 2.84593 10.057 2.74437C9.89467 2.58878 9.70728 2.47877 9.48904 2.42056C9.29202 2.36806 9.09102 2.35635 8.88851 2.35655C8.88786 2.35564 8.88747 2.35457 8.88739 2.35345H5.82286C5.82286 2.3545 5.82286 2.35553 5.82269 2.35655C5.70776 2.35866 5.59268 2.35778 5.47836 2.37196C5.35313 2.38751 5.22907 2.41094 5.11054 2.45469C4.92382 2.5237 4.76158 2.63118 4.62301 2.77472C4.466 2.93723 4.35528 3.1253 4.29663 3.34425C4.24421 3.53959 4.2328 3.73881 4.23252 3.93945"
        fill="white"
      />
      <path
        d="M7.75735 9.75221L5.18249 9.7052C4.34881 9.68881 3.51306 9.72152 2.69572 9.55178C1.45237 9.29819 1.36428 8.05475 1.27211 7.01174C1.14511 5.5454 1.19428 4.05245 1.43394 2.59835C1.56925 1.78245 2.10171 1.29559 2.92514 1.24262C5.70483 1.05035 8.50301 1.07313 11.2765 1.16283C11.5695 1.17106 11.8644 1.216 12.1532 1.26716C13.579 1.51668 13.6137 2.92577 13.7062 4.11196C13.7983 5.31039 13.7594 6.51497 13.5833 7.70524C13.4419 8.69075 13.1715 9.5172 12.0303 9.59698C10.6005 9.7013 9.20347 9.78529 7.76961 9.75855C7.76967 9.75221 7.76144 9.75221 7.75735 9.75221ZM6.24358 7.25718C7.32108 6.63951 8.37802 6.03213 9.44936 5.4186C8.36985 4.80093 7.31492 4.19356 6.24358 3.58003V7.25718Z"
        fill="#FF0000"
      />
    </symbol>

    <symbol id="bun" xmlns="http://www.w3.org/2000/svg" viewBox="0 0 80 70">
      <path d="M71.09 20.74c-.16-.17-.33-.34-.5-.5s-.33-.34-.5-.5-.33-.34-.5-.5-.33-.34-.5-.5-.33-.34-.5-.5-.33-.34-.5-.5-.33-.34-.5-.5A26.46 26.46 0 0 1 75.5 35.7c0 16.57-16.82 30.05-37.5 30.05-11.58 0-21.94-4.23-28.83-10.86l.5.5.5.5.5.5.5.5.5.5.5.5.5.5C19.55 65.3 30.14 69.75 42 69.75c20.68 0 37.5-13.48 37.5-30 0-7.06-3.04-13.75-8.41-19.01Z" />
      <path
        d="M73 35.7c0 15.21-15.67 27.54-35 27.54S3 50.91 3 35.7C3 26.27 9 17.94 18.22 13S33.18 3 38 3s8.94 4.13 19.78 10C67 17.94 73 26.27 73 35.7Z"
        style="fill:#fbf0df"
      />
      <path
        d="M73 35.7a21.67 21.67 0 0 0-.8-5.78c-2.73 33.3-43.35 34.9-59.32 24.94A40 40 0 0 0 38 63.24c19.3 0 35-12.35 35-27.54Z"
        data-name="Bottom Shadow"
        style="fill:#f6dece"
      />
      <path
        d="M24.53 11.17C29 8.49 34.94 3.46 40.78 3.45A9.29 9.29 0 0 0 38 3c-2.42 0-5 1.25-8.25 3.13-1.13.66-2.3 1.39-3.54 2.15-2.33 1.44-5 3.07-8 4.7C8.69 18.13 3 26.62 3 35.7v1.19c6.06-21.41 17.07-23.04 21.53-25.72Z"
        data-name="Light Shine"
        style="fill:#fffefc"
      />
      <path
        d="M35.12 5.53A16.41 16.41 0 0 1 29.49 18c-.28.25-.06.73.3.59 3.37-1.31 7.92-5.23 6-13.14-.08-.45-.67-.33-.67.08Zm2.27 0A16.24 16.24 0 0 1 39 19c-.12.35.31.65.55.36 2.19-2.8 4.1-8.36-1.62-14.36-.29-.26-.74.14-.54.49Zm2.76-.17A16.42 16.42 0 0 1 47 17.12a.33.33 0 0 0 .65.11c.92-3.49.4-9.44-7.17-12.53-.4-.16-.66.38-.33.62Zm-18.46 10.4a16.94 16.94 0 0 0 10.47-9c.18-.36.75-.22.66.18-1.73 8-7.52 9.67-11.12 9.45-.38.01-.37-.52-.01-.63Z"
        style="fill:#ccbea7;fill-rule:evenodd"
      />
      <path d="M38 65.75C17.32 65.75.5 52.27.5 35.7c0-10 6.18-19.33 16.53-24.92 3-1.6 5.57-3.21 7.86-4.62 1.26-.78 2.45-1.51 3.6-2.19C32 1.89 35 .5 38 .5s5.62 1.2 8.9 3.14c1 .57 2 1.19 3.07 1.87 2.49 1.54 5.3 3.28 9 5.27C69.32 16.37 75.5 25.69 75.5 35.7c0 16.57-16.82 30.05-37.5 30.05ZM38 3c-2.42 0-5 1.25-8.25 3.13-1.13.66-2.3 1.39-3.54 2.15-2.33 1.44-5 3.07-8 4.7C8.69 18.13 3 26.62 3 35.7c0 15.19 15.7 27.55 35 27.55S73 50.89 73 35.7c0-9.08-5.69-17.57-15.22-22.7-3.78-2-6.73-3.88-9.12-5.36-1.09-.67-2.09-1.29-3-1.84C42.63 4 40.42 3 38 3Z" />
      <path
        d="M45.05 43a8.93 8.93 0 0 1-2.92 4.71 6.81 6.81 0 0 1-4 1.88A6.84 6.84 0 0 1 34 47.71 8.93 8.93 0 0 1 31.12 43a.72.72 0 0 1 .8-.81h12.34a.72.72 0 0 1 .79.81Z"
        data-name="Background"
        style="fill:#b71422"
      />
      <path
        d="M34 47.79a6.91 6.91 0 0 0 4.12 1.9 6.91 6.91 0 0 0 4.11-1.9 10.63 10.63 0 0 0 1-1.07 6.83 6.83 0 0 0-4.9-2.31 6.15 6.15 0 0 0-5 2.78c.23.21.43.41.67.6Z"
        data-name="Background"
        style="fill:#ff6164"
      />
      <path
        d="M34.16 47a5.36 5.36 0 0 1 4.19-2.08 6 6 0 0 1 4 1.69c.23-.25.45-.51.66-.77a7 7 0 0 0-4.71-1.93 6.36 6.36 0 0 0-4.89 2.36 9.53 9.53 0 0 0 .75.73Z"
        data-name="Outline"
      />
      <path
        d="M38.09 50.19a7.42 7.42 0 0 1-4.45-2 9.52 9.52 0 0 1-3.11-5.05 1.2 1.2 0 0 1 .26-1 1.41 1.41 0 0 1 1.13-.51h12.34a1.44 1.44 0 0 1 1.13.51 1.19 1.19 0 0 1 .25 1 9.52 9.52 0 0 1-3.11 5.05 7.42 7.42 0 0 1-4.44 2Zm-6.17-7.4c-.16 0-.2.07-.21.09a8.29 8.29 0 0 0 2.73 4.37A6.23 6.23 0 0 0 38.09 49a6.28 6.28 0 0 0 3.65-1.73 8.3 8.3 0 0 0 2.72-4.37.21.21 0 0 0-.2-.09Z"
        data-name="Outline"
      />
      <ellipse
        cx="53.22"
        cy="40.18"
        data-name="Right Blush"
        rx="5.85"
        ry="3.44"
        style="fill:#febbd0"
      />
      <ellipse
        cx="22.95"
        cy="40.18"
        data-name="Left Bluch"
        rx="5.85"
        ry="3.44"
        style="fill:#febbd0"
      />
      <path
        d="M25.7 38.8a5.51 5.51 0 1 0-5.5-5.51 5.51 5.51 0 0 0 5.5 5.51Zm24.77 0A5.51 5.51 0 1 0 45 33.29a5.5 5.5 0 0 0 5.47 5.51Z"
        style="fill-rule:evenodd"
      />
      <path
        d="M24 33.64a2.07 2.07 0 1 0-2.06-2.07A2.07 2.07 0 0 0 24 33.64Zm24.77 0a2.07 2.07 0 1 0-2.06-2.07 2.07 2.07 0 0 0 2.04 2.07Z"
        style="fill:#fff;fill-rule:evenodd"
      />
    </symbol>
  </defs>
</svg>